%TF.GenerationSoftware,KiCad,Pcbnew,10.0.0*%
%TF.CreationDate,2026-05-31T15:48:46+05:30*%
%TF.ProjectId,macropad,6d616372-6f70-4616-942e-6b696361645f,rev?*%
%TF.SameCoordinates,Original*%
%TF.FileFunction,Copper,L1,Top*%
%TF.FilePolarity,Positive*%
%FSLAX46Y46*%
G04 Gerber Fmt 4.6, Leading zero omitted, Abs format (unit mm)*
G04 Created by KiCad (PCBNEW 10.0.0) date 2026-05-31 15:48:46*
%MOMM*%
%LPD*%
G01*
G04 APERTURE LIST*
G04 Aperture macros list*
%AMRoundRect*
0 Rectangle with rounded corners*
0 $1 Rounding radius*
0 $2 $3 $4 $5 $6 $7 $8 $9 X,Y pos of 4 corners*
0 Add a 4 corners polygon primitive as box body*
4,1,4,$2,$3,$4,$5,$6,$7,$8,$9,$2,$3,0*
0 Add four circle primitives for the rounded corners*
1,1,$1+$1,$2,$3*
1,1,$1+$1,$4,$5*
1,1,$1+$1,$6,$7*
1,1,$1+$1,$8,$9*
0 Add four rect primitives between the rounded corners*
20,1,$1+$1,$2,$3,$4,$5,0*
20,1,$1+$1,$4,$5,$6,$7,0*
20,1,$1+$1,$6,$7,$8,$9,0*
20,1,$1+$1,$8,$9,$2,$3,0*%
G04 Aperture macros list end*
%TA.AperFunction,ComponentPad*%
%ADD10C,1.700000*%
%TD*%
%TA.AperFunction,ComponentPad*%
%ADD11R,1.700000X1.700000*%
%TD*%
%TA.AperFunction,ComponentPad*%
%ADD12RoundRect,0.250000X0.550000X0.550000X-0.550000X0.550000X-0.550000X-0.550000X0.550000X-0.550000X0*%
%TD*%
%TA.AperFunction,ComponentPad*%
%ADD13C,1.600000*%
%TD*%
%TA.AperFunction,ComponentPad*%
%ADD14C,2.200000*%
%TD*%
%TA.AperFunction,ComponentPad*%
%ADD15C,2.000000*%
%TD*%
%TA.AperFunction,ViaPad*%
%ADD16C,0.600000*%
%TD*%
%TA.AperFunction,Conductor*%
%ADD17C,0.500000*%
%TD*%
%TA.AperFunction,Conductor*%
%ADD18C,0.200000*%
%TD*%
%ADD19C,0.150000*%
%ADD20C,0.120000*%
G04 APERTURE END LIST*
D10*
%TO.P,J1,3,Pin_3_3*%
%TO.N,GND*%
X162300000Y-45500000D03*
%TO.P,J1,2,Pin_2_2*%
%TO.N,unconnected-(J1-Pin_2-Pad2)*%
X159760000Y-45500000D03*
D11*
%TO.P,J1,1,Pin_1_1*%
%TO.N,+3V3*%
X157220000Y-45500000D03*
%TD*%
D12*
%TO.P,D16,1,K_1*%
%TO.N,Net-(D16-K)*%
X63320000Y-103500000D03*
D13*
%TO.P,D16,2,A_2*%
%TO.N,Net-(D16-A)*%
X55700000Y-103500000D03*
%TD*%
D14*
%TO.P,SW12,2,2_2*%
%TO.N,Net-(D12-A)*%
X78950000Y-89890000D03*
%TO.P,SW12,1,1_1*%
%TO.N,Net-(J4-Pin_5)*%
X85300000Y-87350000D03*
%TD*%
%TO.P,SW7,2,2_2*%
%TO.N,Net-(D17-A)*%
X55650000Y-68040000D03*
%TO.P,SW7,1,1_1*%
%TO.N,Net-(J4-Pin_8)*%
X62000000Y-65500000D03*
%TD*%
%TO.P,SW8,2,2_2*%
%TO.N,Net-(D16-A)*%
X55690000Y-89960000D03*
%TO.P,SW8,1,1_1*%
%TO.N,Net-(J4-Pin_5)*%
X62040000Y-87420000D03*
%TD*%
%TO.P,SW6,2,2_2*%
%TO.N,Net-(D18-A)*%
X55650000Y-45960000D03*
%TO.P,SW6,1,1_1*%
%TO.N,Net-(J4-Pin_7)*%
X62000000Y-43420000D03*
%TD*%
D13*
%TO.P,D20,2,A_2*%
%TO.N,Net-(D20-A)*%
X33380000Y-103500000D03*
D12*
%TO.P,D20,1,K_1*%
%TO.N,Net-(D20-K)*%
X41000000Y-103500000D03*
%TD*%
D13*
%TO.P,D12,2,A_2*%
%TO.N,Net-(D12-A)*%
X78980000Y-103500000D03*
D12*
%TO.P,D12,1,K_1*%
%TO.N,Net-(D12-K)*%
X86600000Y-103500000D03*
%TD*%
D13*
%TO.P,D19,2,A_2*%
%TO.N,Net-(D19-A)*%
X55380000Y-37500000D03*
D12*
%TO.P,D19,1,K_1*%
%TO.N,Net-(D16-K)*%
X63000000Y-37500000D03*
%TD*%
D13*
%TO.P,D22,2,A_2*%
%TO.N,Net-(D22-A)*%
X33380000Y-59500000D03*
D12*
%TO.P,D22,1,K_1*%
%TO.N,Net-(D20-K)*%
X41000000Y-59500000D03*
%TD*%
D14*
%TO.P,SW4,2,2_2*%
%TO.N,Net-(D20-A)*%
X33610000Y-89960000D03*
%TO.P,SW4,1,1_1*%
%TO.N,Net-(J4-Pin_5)*%
X39960000Y-87420000D03*
%TD*%
%TO.P,SW5,2,2_2*%
%TO.N,Net-(D19-A)*%
X55610000Y-23960000D03*
%TO.P,SW5,1,1_1*%
%TO.N,Net-(J4-Pin_10)*%
X61960000Y-21420000D03*
%TD*%
D13*
%TO.P,D21,2,A_2*%
%TO.N,Net-(D21-A)*%
X33530000Y-81450000D03*
D12*
%TO.P,D21,1,K_1*%
%TO.N,Net-(D20-K)*%
X41150000Y-81450000D03*
%TD*%
D13*
%TO.P,D14,2,A_2*%
%TO.N,Net-(D14-A)*%
X78940000Y-59480000D03*
D12*
%TO.P,D14,1,K_1*%
%TO.N,Net-(D12-K)*%
X86560000Y-59480000D03*
%TD*%
D13*
%TO.P,D17,2,A_2*%
%TO.N,Net-(D17-A)*%
X55880000Y-81500000D03*
D12*
%TO.P,D17,1,K_1*%
%TO.N,Net-(D16-K)*%
X63500000Y-81500000D03*
%TD*%
D14*
%TO.P,SW1,1,1_1*%
%TO.N,Net-(J4-Pin_10)*%
X39850000Y-21460000D03*
%TO.P,SW1,2,2_2*%
%TO.N,Net-(D23-A)*%
X33500000Y-24000000D03*
%TD*%
D13*
%TO.P,D18,2,A_2*%
%TO.N,Net-(D18-A)*%
X55880000Y-59500000D03*
D12*
%TO.P,D18,1,K_1*%
%TO.N,Net-(D16-K)*%
X63500000Y-59500000D03*
%TD*%
D14*
%TO.P,SW3,2,2_2*%
%TO.N,Net-(D21-A)*%
X33610000Y-67960000D03*
%TO.P,SW3,1,1_1*%
%TO.N,Net-(J4-Pin_8)*%
X39960000Y-65420000D03*
%TD*%
D13*
%TO.P,D23,2,A_2*%
%TO.N,Net-(D23-A)*%
X33380000Y-37500000D03*
D12*
%TO.P,D23,1,K_1*%
%TO.N,Net-(D20-K)*%
X41000000Y-37500000D03*
%TD*%
D13*
%TO.P,D15,2,A_2*%
%TO.N,Net-(D15-A)*%
X78880000Y-37500000D03*
D12*
%TO.P,D15,1,K_1*%
%TO.N,Net-(D12-K)*%
X86500000Y-37500000D03*
%TD*%
D14*
%TO.P,SW2,2,2_2*%
%TO.N,Net-(D22-A)*%
X33500000Y-45960000D03*
%TO.P,SW2,1,1_1*%
%TO.N,Net-(J4-Pin_7)*%
X39850000Y-43420000D03*
%TD*%
D13*
%TO.P,D13,2,A_2*%
%TO.N,Net-(D13-A)*%
X78980000Y-81400000D03*
D12*
%TO.P,D13,1,K_1*%
%TO.N,Net-(D12-K)*%
X86600000Y-81400000D03*
%TD*%
D14*
%TO.P,SW9,2,2_2*%
%TO.N,Net-(D15-A)*%
X78690000Y-23960000D03*
%TO.P,SW9,1,1_1*%
%TO.N,Net-(J4-Pin_10)*%
X85040000Y-21420000D03*
%TD*%
%TO.P,SW10,2,2_2*%
%TO.N,Net-(D14-A)*%
X78800000Y-45950000D03*
%TO.P,SW10,1,1_1*%
%TO.N,Net-(J4-Pin_7)*%
X85150000Y-43410000D03*
%TD*%
%TO.P,SW11,2,2_2*%
%TO.N,Net-(D13-A)*%
X78900000Y-67950000D03*
%TO.P,SW11,1,1_1*%
%TO.N,Net-(J4-Pin_8)*%
X85250000Y-65410000D03*
%TD*%
D13*
%TO.P,R4,1*%
%TO.N,+3V3*%
X94450000Y-97040000D03*
%TO.P,R4,2*%
%TO.N,Net-(D12-K)*%
X94450000Y-104660000D03*
%TD*%
%TO.P,R2,1*%
%TO.N,+3V3*%
X48450000Y-104210000D03*
%TO.P,R2,2*%
%TO.N,Net-(D20-K)*%
X48450000Y-96590000D03*
%TD*%
%TO.P,R6,1*%
%TO.N,+3V3*%
X93950000Y-50510000D03*
%TO.P,R6,2*%
%TO.N,Net-(J4-Pin_7)*%
X93950000Y-42890000D03*
%TD*%
%TO.P,R5,1*%
%TO.N,+3V3*%
X94000000Y-28810000D03*
%TO.P,R5,2*%
%TO.N,Net-(J4-Pin_10)*%
X94000000Y-21190000D03*
%TD*%
%TO.P,R8,1*%
%TO.N,+3V3*%
X94400000Y-94820000D03*
%TO.P,R8,2*%
%TO.N,Net-(J4-Pin_5)*%
X94400000Y-87200000D03*
%TD*%
D11*
%TO.P,J2,1,Pin_1_1*%
%TO.N,Net-(J2-Pin_1)*%
X105000000Y-34000000D03*
D10*
%TO.P,J2,2,Pin_2_2*%
%TO.N,Net-(J2-Pin_2)*%
X107540000Y-34000000D03*
%TO.P,J2,3,Pin_3_3*%
%TO.N,unconnected-(J2-Pin_3-Pad3)*%
X110080000Y-34000000D03*
%TO.P,J2,4,Pin_4_4*%
%TO.N,/p27*%
X112620000Y-34000000D03*
%TO.P,J2,5,Pin_5_5*%
%TO.N,Net-(J2-Pin_5)*%
X115160000Y-34000000D03*
%TO.P,J2,6,Pin_6_6*%
%TO.N,Net-(J2-Pin_6)*%
X117700000Y-34000000D03*
%TO.P,J2,7,Pin_7_7*%
%TO.N,Net-(J2-Pin_7)*%
X120240000Y-34000000D03*
%TO.P,J2,8,Pin_8_8*%
%TO.N,GND*%
X122780000Y-34000000D03*
%TO.P,J2,9,Pin_9_9*%
%TO.N,+3V3*%
X125320000Y-34000000D03*
%TD*%
D13*
%TO.P,R7,1*%
%TO.N,+3V3*%
X94300000Y-72820000D03*
%TO.P,R7,2*%
%TO.N,Net-(J4-Pin_8)*%
X94300000Y-65200000D03*
%TD*%
%TO.P,R3,1*%
%TO.N,+3V3*%
X70900000Y-104660000D03*
%TO.P,R3,2*%
%TO.N,Net-(D16-K)*%
X70900000Y-97040000D03*
%TD*%
%TO.P,R1,1*%
%TO.N,+3V3*%
X149440000Y-71950000D03*
%TO.P,R1,2*%
%TO.N,Net-(J4-Pin_4)*%
X157060000Y-71950000D03*
%TD*%
D15*
%TO.P,SW13,1,1_1*%
%TO.N,Net-(J4-Pin_4)*%
X149750000Y-77100000D03*
X156250000Y-77100000D03*
%TO.P,SW13,2,2_2*%
%TO.N,GND*%
X149750000Y-81600000D03*
X156250000Y-81600000D03*
%TD*%
D11*
%TO.P,J4,1,Pin_1_1*%
%TO.N,+3V3*%
X128300000Y-87000000D03*
D10*
%TO.P,J4,2,Pin_2_2*%
%TO.N,unconnected-(J4-Pin_2-Pad2)*%
X128300000Y-84460000D03*
%TO.P,J4,3,Pin_3_3*%
%TO.N,unconnected-(J4-Pin_3-Pad3)*%
X128300000Y-81920000D03*
%TO.P,J4,4,Pin_4_4*%
%TO.N,Net-(J4-Pin_4)*%
X128300000Y-79380000D03*
%TO.P,J4,5,Pin_5_5*%
%TO.N,Net-(J4-Pin_5)*%
X128300000Y-76840000D03*
%TO.P,J4,6,Pin_6_6*%
%TO.N,unconnected-(J4-Pin_6-Pad6)*%
X128300000Y-74300000D03*
%TO.P,J4,7,Pin_7_7*%
%TO.N,Net-(J4-Pin_7)*%
X128300000Y-71760000D03*
%TO.P,J4,8,Pin_8_8*%
%TO.N,Net-(J4-Pin_8)*%
X128300000Y-69220000D03*
%TO.P,J4,9,Pin_9_9*%
%TO.N,Net-(D20-K)*%
X128300000Y-66680000D03*
%TO.P,J4,10,Pin_10_10*%
%TO.N,Net-(J4-Pin_10)*%
X128300000Y-64140000D03*
%TO.P,J4,11,Pin_11_11*%
%TO.N,/p27*%
X128300000Y-61600000D03*
%TO.P,J4,12,Pin_12_12*%
%TO.N,Net-(D16-K)*%
X128300000Y-59060000D03*
%TO.P,J4,13,Pin_13_13*%
%TO.N,unconnected-(J4-Pin_13-Pad13)*%
X128300000Y-56520000D03*
%TO.P,J4,14,Pin_14_14*%
%TO.N,GND*%
X128300000Y-53980000D03*
%TO.P,J4,15,Pin_15_15*%
%TO.N,Net-(D12-K)*%
X128300000Y-51440000D03*
%TO.P,J4,16,Pin_16_16*%
%TO.N,unconnected-(J4-Pin_16-Pad16)*%
X128300000Y-48900000D03*
%TO.P,J4,17,Pin_17_17*%
%TO.N,unconnected-(J4-Pin_17-Pad17)*%
X128300000Y-46360000D03*
%TO.P,J4,18,Pin_18_18*%
%TO.N,unconnected-(J4-Pin_18-Pad18)*%
X128300000Y-43820000D03*
%TO.P,J4,19,Pin_19_19*%
%TO.N,Net-(J4-Pin_19)*%
X128300000Y-41280000D03*
%TD*%
D11*
%TO.P,J5,1,Pin_1_1*%
%TO.N,GND*%
X108000000Y-87000000D03*
D10*
%TO.P,J5,2,Pin_2_2*%
%TO.N,Net-(J2-Pin_1)*%
X108000000Y-84460000D03*
%TO.P,J5,3,Pin_3_3*%
%TO.N,Net-(J3-Pin_2)*%
X108000000Y-81920000D03*
%TO.P,J5,4,Pin_4_4*%
%TO.N,unconnected-(J5-Pin_4-Pad4)*%
X108000000Y-79380000D03*
%TO.P,J5,5,Pin_5_5*%
%TO.N,unconnected-(J5-Pin_5-Pad5)*%
X108000000Y-76840000D03*
%TO.P,J5,6,Pin_6_6*%
%TO.N,Net-(J3-Pin_3)*%
X108000000Y-74300000D03*
%TO.P,J5,7,Pin_7_7*%
%TO.N,GND*%
X108000000Y-71760000D03*
%TO.P,J5,8,Pin_8_8*%
%TO.N,Net-(J2-Pin_7)*%
X108000000Y-69220000D03*
%TO.P,J5,9,Pin_9_9*%
%TO.N,Net-(J2-Pin_5)*%
X108000000Y-66680000D03*
%TO.P,J5,10,Pin_10_10*%
%TO.N,unconnected-(J5-Pin_10-Pad10)*%
X108000000Y-64140000D03*
%TO.P,J5,11,Pin_11_11*%
%TO.N,Net-(J2-Pin_6)*%
X108000000Y-61600000D03*
%TO.P,J5,12,Pin_12_12*%
%TO.N,Net-(J2-Pin_2)*%
X108000000Y-59060000D03*
%TO.P,J5,13,Pin_13_13*%
%TO.N,unconnected-(J5-Pin_13-Pad13)*%
X108000000Y-56520000D03*
%TO.P,J5,14,Pin_14_14*%
%TO.N,unconnected-(J5-Pin_14-Pad14)*%
X108000000Y-53980000D03*
%TO.P,J5,15,Pin_15_15*%
%TO.N,unconnected-(J5-Pin_15-Pad15)*%
X108000000Y-51440000D03*
%TO.P,J5,16,Pin_16_16*%
%TO.N,unconnected-(J5-Pin_16-Pad16)*%
X108000000Y-48900000D03*
%TO.P,J5,17,Pin_17_17*%
%TO.N,unconnected-(J5-Pin_17-Pad17)*%
X108000000Y-46360000D03*
%TO.P,J5,18,Pin_18_18*%
%TO.N,unconnected-(J5-Pin_18-Pad18)*%
X108000000Y-43820000D03*
%TO.P,J5,19,Pin_19_19*%
%TO.N,unconnected-(J5-Pin_19-Pad19)*%
X108000000Y-41280000D03*
%TD*%
D11*
%TO.P,J6,1,Pin_1_1*%
%TO.N,Net-(J4-Pin_19)*%
X141160000Y-33650000D03*
D10*
%TO.P,J6,2,Pin_2_2*%
%TO.N,GND*%
X143700000Y-33650000D03*
%TD*%
D11*
%TO.P,J3,1,Pin_1_1*%
%TO.N,GND*%
X155940000Y-35350000D03*
D10*
%TO.P,J3,2,Pin_2_2*%
%TO.N,Net-(J3-Pin_2)*%
X158480000Y-35350000D03*
%TO.P,J3,3,Pin_3_3*%
%TO.N,Net-(J3-Pin_3)*%
X161020000Y-35350000D03*
%TO.P,J3,4,Pin_4_4*%
%TO.N,unconnected-(J3-Pin_4-Pad4)*%
X163560000Y-35350000D03*
%TD*%
D16*
%TO.N,Net-(J4-Pin_5)*%
X93250000Y-84200000D03*
%TO.N,Net-(D12-K)*%
X134150000Y-57700000D03*
X114100000Y-92100000D03*
%TO.N,Net-(D16-K)*%
X111150000Y-68300000D03*
%TO.N,Net-(D20-K)*%
X128300000Y-65650000D03*
%TO.N,+3V3*%
X120650000Y-28850000D03*
%TO.N,Net-(J4-Pin_7)*%
X41800000Y-43500000D03*
%TD*%
%TO.N,GND*%
D17*
X158310000Y-79540000D02*
X158310000Y-49490000D01*
X158310000Y-49490000D02*
X162300000Y-45500000D01*
X156250000Y-81600000D02*
X158310000Y-79540000D01*
%TO.N,+3V3*%
X151200000Y-45500000D02*
X157220000Y-45500000D01*
X149440000Y-47260000D02*
X151200000Y-45500000D01*
X149440000Y-71950000D02*
X149440000Y-47260000D01*
%TO.N,Net-(J3-Pin_2)*%
D18*
X156780000Y-37050000D02*
X158480000Y-35350000D01*
X150760000Y-37050000D02*
X156780000Y-37050000D01*
%TO.N,GND*%
D17*
X148800000Y-35350000D02*
X155940000Y-35350000D01*
X147100000Y-37050000D02*
X148800000Y-35350000D01*
%TO.N,Net-(D12-K)*%
D18*
X88890000Y-39690000D02*
X88890000Y-57150000D01*
X86500000Y-37300000D02*
X88890000Y-39690000D01*
X86500000Y-37500000D02*
X86500000Y-37300000D01*
X88890000Y-57150000D02*
X86560000Y-59480000D01*
%TO.N,Net-(J4-Pin_5)*%
X94400000Y-85850150D02*
X94400000Y-87200000D01*
X93250000Y-84700150D02*
X94400000Y-85850150D01*
X93250000Y-84200000D02*
X93250000Y-84700150D01*
%TO.N,Net-(J2-Pin_6)*%
X109150000Y-62750000D02*
X108000000Y-61600000D01*
X107523654Y-67830000D02*
X108476346Y-67830000D01*
X100500000Y-60806346D02*
X107523654Y-67830000D01*
X100500000Y-31068630D02*
X100500000Y-60806346D01*
X100968629Y-30600000D02*
X100500000Y-31068630D01*
X114300000Y-30600000D02*
X100968629Y-30600000D01*
X108476346Y-67830000D02*
X109150000Y-67156346D01*
X109150000Y-67156346D02*
X109150000Y-62750000D01*
X117700000Y-34000000D02*
X114300000Y-30600000D01*
%TO.N,Net-(D12-K)*%
X134150000Y-70076346D02*
X134150000Y-57700000D01*
X128776346Y-75450000D02*
X134150000Y-70076346D01*
X128063654Y-75450000D02*
X128776346Y-75450000D01*
X114100000Y-92100000D02*
X114100000Y-89413654D01*
X114100000Y-89413654D02*
X128063654Y-75450000D01*
%TO.N,Net-(D16-K)*%
X129450000Y-60210000D02*
X128300000Y-59060000D01*
X129450000Y-62076346D02*
X129450000Y-60210000D01*
X128776346Y-62750000D02*
X129450000Y-62076346D01*
X116700000Y-62750000D02*
X128776346Y-62750000D01*
X111150000Y-68300000D02*
X116700000Y-62750000D01*
%TO.N,Net-(D12-K)*%
X90700000Y-77300000D02*
X90700000Y-63620000D01*
X90700000Y-63620000D02*
X86560000Y-59480000D01*
X86600000Y-81400000D02*
X90700000Y-77300000D01*
X89050000Y-83850000D02*
X86600000Y-81400000D01*
X89050000Y-101050000D02*
X89050000Y-83850000D01*
X86600000Y-103500000D02*
X89050000Y-101050000D01*
%TO.N,Net-(D12-A)*%
X78950000Y-103470000D02*
X78980000Y-103500000D01*
X78950000Y-89890000D02*
X78950000Y-103470000D01*
%TO.N,+3V3*%
X157160000Y-45560000D02*
X157220000Y-45500000D01*
%TO.N,GND*%
D17*
X156250000Y-81600000D02*
X149750000Y-81600000D01*
X164098478Y-34050000D02*
X164860000Y-34811522D01*
X164860000Y-34811522D02*
X164860000Y-42940000D01*
X164860000Y-42940000D02*
X162300000Y-45500000D01*
X155940000Y-35350000D02*
X157240000Y-34050000D01*
X157240000Y-34050000D02*
X164098478Y-34050000D01*
%TO.N,Net-(J3-Pin_2)*%
D18*
X130256346Y-57553654D02*
X130256346Y-73150000D01*
X150760000Y-37050000D02*
X130256346Y-57553654D01*
%TO.N,Net-(J4-Pin_4)*%
X147470000Y-79380000D02*
X128300000Y-79380000D01*
X149750000Y-77100000D02*
X147470000Y-79380000D01*
X156250000Y-77100000D02*
X149750000Y-77100000D01*
X157060000Y-76290000D02*
X156250000Y-77100000D01*
X157060000Y-71950000D02*
X157060000Y-76290000D01*
%TO.N,Net-(J4-Pin_19)*%
D17*
X135930000Y-33650000D02*
X128300000Y-41280000D01*
X141160000Y-33650000D02*
X135930000Y-33650000D01*
%TO.N,GND*%
X125330000Y-31450000D02*
X122780000Y-34000000D01*
X141500000Y-31450000D02*
X125330000Y-31450000D01*
X143700000Y-33650000D02*
X141500000Y-31450000D01*
X147100000Y-37050000D02*
X143700000Y-33650000D01*
%TO.N,Net-(J3-Pin_2)*%
D18*
X106850000Y-83070000D02*
X108000000Y-81920000D01*
X106850000Y-84936346D02*
X106850000Y-83070000D01*
X107523654Y-85610000D02*
X106850000Y-84936346D01*
X108476346Y-85610000D02*
X107523654Y-85610000D01*
X120936346Y-73150000D02*
X108476346Y-85610000D01*
X130256346Y-73150000D02*
X120936346Y-73150000D01*
%TO.N,Net-(D19-A)*%
X55610000Y-37270000D02*
X55380000Y-37500000D01*
X55610000Y-23960000D02*
X55610000Y-37270000D01*
%TO.N,Net-(D15-A)*%
X78690000Y-37310000D02*
X78880000Y-37500000D01*
X78690000Y-23960000D02*
X78690000Y-37310000D01*
%TO.N,Net-(D14-A)*%
X78800000Y-59340000D02*
X78940000Y-59480000D01*
X78800000Y-45950000D02*
X78800000Y-59340000D01*
%TO.N,Net-(D13-A)*%
X78900000Y-81320000D02*
X78980000Y-81400000D01*
X78900000Y-67950000D02*
X78900000Y-81320000D01*
%TO.N,Net-(D17-A)*%
X55880000Y-68270000D02*
X55880000Y-81500000D01*
X55650000Y-68040000D02*
X55880000Y-68270000D01*
%TO.N,Net-(D18-A)*%
X55650000Y-59270000D02*
X55880000Y-59500000D01*
X55650000Y-45960000D02*
X55650000Y-59270000D01*
%TO.N,GND*%
D17*
X122780000Y-34000000D02*
X122780000Y-48460000D01*
%TO.N,+3V3*%
D18*
X120650000Y-28850000D02*
X120410000Y-28610000D01*
D17*
X120410000Y-28610000D02*
X99600000Y-28610000D01*
%TO.N,Net-(J2-Pin_7)*%
D18*
X100100000Y-61320000D02*
X108000000Y-69220000D01*
X100802943Y-30200001D02*
X100100000Y-30902945D01*
X116440001Y-30200001D02*
X100802943Y-30200001D01*
X120240000Y-34000000D02*
X116440001Y-30200001D01*
X100100000Y-30902945D02*
X100100000Y-61320000D01*
%TO.N,Net-(J2-Pin_5)*%
X100900000Y-59580000D02*
X108000000Y-66680000D01*
X100900000Y-31234315D02*
X100900000Y-59580000D01*
X112160000Y-31000000D02*
X101134315Y-31000000D01*
X115160000Y-34000000D02*
X112160000Y-31000000D01*
X101134315Y-31000000D02*
X100900000Y-31234315D01*
%TO.N,/p27*%
X112620000Y-45920000D02*
X128300000Y-61600000D01*
X112620000Y-34000000D02*
X112620000Y-45920000D01*
%TO.N,Net-(J2-Pin_2)*%
X101300000Y-52360000D02*
X108000000Y-59060000D01*
X101300000Y-31400000D02*
X101300000Y-52360000D01*
X104940000Y-31400000D02*
X101300000Y-31400000D01*
X107540000Y-34000000D02*
X104940000Y-31400000D01*
%TO.N,Net-(J2-Pin_1)*%
X110100000Y-82360000D02*
X108000000Y-84460000D01*
X110100000Y-39100000D02*
X110100000Y-82360000D01*
X105000000Y-34000000D02*
X110100000Y-39100000D01*
%TO.N,GND*%
D17*
X122780000Y-48460000D02*
X128300000Y-53980000D01*
%TO.N,Net-(J4-Pin_7)*%
D18*
X41720000Y-43420000D02*
X41800000Y-43500000D01*
X39850000Y-43420000D02*
X41720000Y-43420000D01*
%TO.N,Net-(D16-K)*%
X65740000Y-40240000D02*
X63000000Y-37500000D01*
X65740000Y-57260000D02*
X65740000Y-40240000D01*
X63500000Y-59500000D02*
X65740000Y-57260000D01*
X65800000Y-79200000D02*
X65800000Y-61800000D01*
X65800000Y-61800000D02*
X63500000Y-59500000D01*
X63500000Y-81500000D02*
X65800000Y-79200000D01*
X70900000Y-88900000D02*
X70900000Y-97040000D01*
X63500000Y-81500000D02*
X70900000Y-88900000D01*
X63320000Y-103500000D02*
X64440000Y-103500000D01*
X64440000Y-103500000D02*
X70900000Y-97040000D01*
%TO.N,Net-(D16-A)*%
X55700000Y-89970000D02*
X55690000Y-89960000D01*
X55700000Y-103500000D02*
X55700000Y-89970000D01*
%TO.N,Net-(D20-K)*%
X42340000Y-103500000D02*
X48500000Y-97340000D01*
X41000000Y-103500000D02*
X42340000Y-103500000D01*
%TO.N,+3V3*%
D17*
X94400000Y-94820000D02*
X94400000Y-96990000D01*
X94400000Y-96990000D02*
X94450000Y-97040000D01*
%TO.N,Net-(D20-K)*%
D18*
X43700000Y-78900000D02*
X41150000Y-81450000D01*
X43700000Y-84000000D02*
X43700000Y-100800000D01*
X41000000Y-37500000D02*
X43590000Y-40090000D01*
X41000000Y-59500000D02*
X43700000Y-62200000D01*
X43590000Y-56910000D02*
X41000000Y-59500000D01*
X41150000Y-81450000D02*
X43700000Y-84000000D01*
%TO.N,Net-(D20-A)*%
X33610000Y-103270000D02*
X33380000Y-103500000D01*
X33610000Y-89960000D02*
X33610000Y-103270000D01*
%TO.N,Net-(D23-A)*%
X33500000Y-37380000D02*
X33380000Y-37500000D01*
%TO.N,Net-(D21-A)*%
X33610000Y-80770000D02*
X32880000Y-81500000D01*
%TO.N,Net-(D20-K)*%
X43590000Y-40090000D02*
X43590000Y-56910000D01*
%TO.N,Net-(D22-A)*%
X33500000Y-59380000D02*
X33380000Y-59500000D01*
%TO.N,Net-(D20-K)*%
X43700000Y-100800000D02*
X41000000Y-103500000D01*
X43700000Y-62200000D02*
X43700000Y-78900000D01*
%TO.N,Net-(D21-A)*%
X33610000Y-67960000D02*
X33610000Y-80770000D01*
%TO.N,Net-(D22-A)*%
X33500000Y-45960000D02*
X33500000Y-59380000D01*
%TO.N,Net-(D23-A)*%
X33500000Y-24000000D02*
X33500000Y-37380000D01*
%TO.N,+3V3*%
D17*
X91900000Y-52710000D02*
X93000000Y-51610000D01*
X91900000Y-75520000D02*
X94600000Y-72820000D01*
X91900000Y-92320000D02*
X91900000Y-75520000D01*
X94600000Y-72820000D02*
X91900000Y-70120000D01*
X91900000Y-70120000D02*
X91900000Y-52710000D01*
X94400000Y-94820000D02*
X91900000Y-92320000D01*
X91800000Y-31010000D02*
X94000000Y-28810000D01*
X94100000Y-50510000D02*
X91800000Y-48210000D01*
X91800000Y-48210000D02*
X91800000Y-31010000D01*
X94890000Y-28610000D02*
X99600000Y-28610000D01*
D18*
X94000000Y-28810000D02*
X94690000Y-28810000D01*
X94690000Y-28810000D02*
X94890000Y-28610000D01*
D17*
X93000000Y-51610000D02*
X94100000Y-50510000D01*
%TD*%
D19*
X154294819Y-45833333D02*
X155009104Y-45833333D01*
X155009104Y-45833333D02*
X155151961Y-45880952D01*
X155151961Y-45880952D02*
X155247200Y-45976190D01*
X155247200Y-45976190D02*
X155294819Y-46119047D01*
X155294819Y-46119047D02*
X155294819Y-46214285D01*
X155294819Y-44833333D02*
X155294819Y-45404761D01*
X155294819Y-45119047D02*
X154294819Y-45119047D01*
X154294819Y-45119047D02*
X154437676Y-45214285D01*
X154437676Y-45214285D02*
X154532914Y-45309523D01*
X154532914Y-45309523D02*
X154580533Y-45404761D01*
X58295714Y-106074819D02*
X58295714Y-105074819D01*
X58295714Y-105074819D02*
X58533809Y-105074819D01*
X58533809Y-105074819D02*
X58676666Y-105122438D01*
X58676666Y-105122438D02*
X58771904Y-105217676D01*
X58771904Y-105217676D02*
X58819523Y-105312914D01*
X58819523Y-105312914D02*
X58867142Y-105503390D01*
X58867142Y-105503390D02*
X58867142Y-105646247D01*
X58867142Y-105646247D02*
X58819523Y-105836723D01*
X58819523Y-105836723D02*
X58771904Y-105931961D01*
X58771904Y-105931961D02*
X58676666Y-106027200D01*
X58676666Y-106027200D02*
X58533809Y-106074819D01*
X58533809Y-106074819D02*
X58295714Y-106074819D01*
X59819523Y-106074819D02*
X59248095Y-106074819D01*
X59533809Y-106074819D02*
X59533809Y-105074819D01*
X59533809Y-105074819D02*
X59438571Y-105217676D01*
X59438571Y-105217676D02*
X59343333Y-105312914D01*
X59343333Y-105312914D02*
X59248095Y-105360533D01*
X60676666Y-105074819D02*
X60486190Y-105074819D01*
X60486190Y-105074819D02*
X60390952Y-105122438D01*
X60390952Y-105122438D02*
X60343333Y-105170057D01*
X60343333Y-105170057D02*
X60248095Y-105312914D01*
X60248095Y-105312914D02*
X60200476Y-105503390D01*
X60200476Y-105503390D02*
X60200476Y-105884342D01*
X60200476Y-105884342D02*
X60248095Y-105979580D01*
X60248095Y-105979580D02*
X60295714Y-106027200D01*
X60295714Y-106027200D02*
X60390952Y-106074819D01*
X60390952Y-106074819D02*
X60581428Y-106074819D01*
X60581428Y-106074819D02*
X60676666Y-106027200D01*
X60676666Y-106027200D02*
X60724285Y-105979580D01*
X60724285Y-105979580D02*
X60771904Y-105884342D01*
X60771904Y-105884342D02*
X60771904Y-105646247D01*
X60771904Y-105646247D02*
X60724285Y-105551009D01*
X60724285Y-105551009D02*
X60676666Y-105503390D01*
X60676666Y-105503390D02*
X60581428Y-105455771D01*
X60581428Y-105455771D02*
X60390952Y-105455771D01*
X60390952Y-105455771D02*
X60295714Y-105503390D01*
X60295714Y-105503390D02*
X60248095Y-105551009D01*
X60248095Y-105551009D02*
X60200476Y-105646247D01*
X63058095Y-105754819D02*
X63058095Y-104754819D01*
X63629523Y-105754819D02*
X63200952Y-105183390D01*
X63629523Y-104754819D02*
X63058095Y-105326247D01*
X80950476Y-84963200D02*
X81093333Y-85010819D01*
X81093333Y-85010819D02*
X81331428Y-85010819D01*
X81331428Y-85010819D02*
X81426666Y-84963200D01*
X81426666Y-84963200D02*
X81474285Y-84915580D01*
X81474285Y-84915580D02*
X81521904Y-84820342D01*
X81521904Y-84820342D02*
X81521904Y-84725104D01*
X81521904Y-84725104D02*
X81474285Y-84629866D01*
X81474285Y-84629866D02*
X81426666Y-84582247D01*
X81426666Y-84582247D02*
X81331428Y-84534628D01*
X81331428Y-84534628D02*
X81140952Y-84487009D01*
X81140952Y-84487009D02*
X81045714Y-84439390D01*
X81045714Y-84439390D02*
X80998095Y-84391771D01*
X80998095Y-84391771D02*
X80950476Y-84296533D01*
X80950476Y-84296533D02*
X80950476Y-84201295D01*
X80950476Y-84201295D02*
X80998095Y-84106057D01*
X80998095Y-84106057D02*
X81045714Y-84058438D01*
X81045714Y-84058438D02*
X81140952Y-84010819D01*
X81140952Y-84010819D02*
X81379047Y-84010819D01*
X81379047Y-84010819D02*
X81521904Y-84058438D01*
X81855238Y-84010819D02*
X82093333Y-85010819D01*
X82093333Y-85010819D02*
X82283809Y-84296533D01*
X82283809Y-84296533D02*
X82474285Y-85010819D01*
X82474285Y-85010819D02*
X82712381Y-84010819D01*
X83617142Y-85010819D02*
X83045714Y-85010819D01*
X83331428Y-85010819D02*
X83331428Y-84010819D01*
X83331428Y-84010819D02*
X83236190Y-84153676D01*
X83236190Y-84153676D02*
X83140952Y-84248914D01*
X83140952Y-84248914D02*
X83045714Y-84296533D01*
X83998095Y-84106057D02*
X84045714Y-84058438D01*
X84045714Y-84058438D02*
X84140952Y-84010819D01*
X84140952Y-84010819D02*
X84379047Y-84010819D01*
X84379047Y-84010819D02*
X84474285Y-84058438D01*
X84474285Y-84058438D02*
X84521904Y-84106057D01*
X84521904Y-84106057D02*
X84569523Y-84201295D01*
X84569523Y-84201295D02*
X84569523Y-84296533D01*
X84569523Y-84296533D02*
X84521904Y-84439390D01*
X84521904Y-84439390D02*
X83950476Y-85010819D01*
X83950476Y-85010819D02*
X84569523Y-85010819D01*
X58126667Y-63113200D02*
X58269524Y-63160819D01*
X58269524Y-63160819D02*
X58507619Y-63160819D01*
X58507619Y-63160819D02*
X58602857Y-63113200D01*
X58602857Y-63113200D02*
X58650476Y-63065580D01*
X58650476Y-63065580D02*
X58698095Y-62970342D01*
X58698095Y-62970342D02*
X58698095Y-62875104D01*
X58698095Y-62875104D02*
X58650476Y-62779866D01*
X58650476Y-62779866D02*
X58602857Y-62732247D01*
X58602857Y-62732247D02*
X58507619Y-62684628D01*
X58507619Y-62684628D02*
X58317143Y-62637009D01*
X58317143Y-62637009D02*
X58221905Y-62589390D01*
X58221905Y-62589390D02*
X58174286Y-62541771D01*
X58174286Y-62541771D02*
X58126667Y-62446533D01*
X58126667Y-62446533D02*
X58126667Y-62351295D01*
X58126667Y-62351295D02*
X58174286Y-62256057D01*
X58174286Y-62256057D02*
X58221905Y-62208438D01*
X58221905Y-62208438D02*
X58317143Y-62160819D01*
X58317143Y-62160819D02*
X58555238Y-62160819D01*
X58555238Y-62160819D02*
X58698095Y-62208438D01*
X59031429Y-62160819D02*
X59269524Y-63160819D01*
X59269524Y-63160819D02*
X59460000Y-62446533D01*
X59460000Y-62446533D02*
X59650476Y-63160819D01*
X59650476Y-63160819D02*
X59888572Y-62160819D01*
X60174286Y-62160819D02*
X60840952Y-62160819D01*
X60840952Y-62160819D02*
X60412381Y-63160819D01*
X58166667Y-85033200D02*
X58309524Y-85080819D01*
X58309524Y-85080819D02*
X58547619Y-85080819D01*
X58547619Y-85080819D02*
X58642857Y-85033200D01*
X58642857Y-85033200D02*
X58690476Y-84985580D01*
X58690476Y-84985580D02*
X58738095Y-84890342D01*
X58738095Y-84890342D02*
X58738095Y-84795104D01*
X58738095Y-84795104D02*
X58690476Y-84699866D01*
X58690476Y-84699866D02*
X58642857Y-84652247D01*
X58642857Y-84652247D02*
X58547619Y-84604628D01*
X58547619Y-84604628D02*
X58357143Y-84557009D01*
X58357143Y-84557009D02*
X58261905Y-84509390D01*
X58261905Y-84509390D02*
X58214286Y-84461771D01*
X58214286Y-84461771D02*
X58166667Y-84366533D01*
X58166667Y-84366533D02*
X58166667Y-84271295D01*
X58166667Y-84271295D02*
X58214286Y-84176057D01*
X58214286Y-84176057D02*
X58261905Y-84128438D01*
X58261905Y-84128438D02*
X58357143Y-84080819D01*
X58357143Y-84080819D02*
X58595238Y-84080819D01*
X58595238Y-84080819D02*
X58738095Y-84128438D01*
X59071429Y-84080819D02*
X59309524Y-85080819D01*
X59309524Y-85080819D02*
X59500000Y-84366533D01*
X59500000Y-84366533D02*
X59690476Y-85080819D01*
X59690476Y-85080819D02*
X59928572Y-84080819D01*
X60452381Y-84509390D02*
X60357143Y-84461771D01*
X60357143Y-84461771D02*
X60309524Y-84414152D01*
X60309524Y-84414152D02*
X60261905Y-84318914D01*
X60261905Y-84318914D02*
X60261905Y-84271295D01*
X60261905Y-84271295D02*
X60309524Y-84176057D01*
X60309524Y-84176057D02*
X60357143Y-84128438D01*
X60357143Y-84128438D02*
X60452381Y-84080819D01*
X60452381Y-84080819D02*
X60642857Y-84080819D01*
X60642857Y-84080819D02*
X60738095Y-84128438D01*
X60738095Y-84128438D02*
X60785714Y-84176057D01*
X60785714Y-84176057D02*
X60833333Y-84271295D01*
X60833333Y-84271295D02*
X60833333Y-84318914D01*
X60833333Y-84318914D02*
X60785714Y-84414152D01*
X60785714Y-84414152D02*
X60738095Y-84461771D01*
X60738095Y-84461771D02*
X60642857Y-84509390D01*
X60642857Y-84509390D02*
X60452381Y-84509390D01*
X60452381Y-84509390D02*
X60357143Y-84557009D01*
X60357143Y-84557009D02*
X60309524Y-84604628D01*
X60309524Y-84604628D02*
X60261905Y-84699866D01*
X60261905Y-84699866D02*
X60261905Y-84890342D01*
X60261905Y-84890342D02*
X60309524Y-84985580D01*
X60309524Y-84985580D02*
X60357143Y-85033200D01*
X60357143Y-85033200D02*
X60452381Y-85080819D01*
X60452381Y-85080819D02*
X60642857Y-85080819D01*
X60642857Y-85080819D02*
X60738095Y-85033200D01*
X60738095Y-85033200D02*
X60785714Y-84985580D01*
X60785714Y-84985580D02*
X60833333Y-84890342D01*
X60833333Y-84890342D02*
X60833333Y-84699866D01*
X60833333Y-84699866D02*
X60785714Y-84604628D01*
X60785714Y-84604628D02*
X60738095Y-84557009D01*
X60738095Y-84557009D02*
X60642857Y-84509390D01*
X58126667Y-41033200D02*
X58269524Y-41080819D01*
X58269524Y-41080819D02*
X58507619Y-41080819D01*
X58507619Y-41080819D02*
X58602857Y-41033200D01*
X58602857Y-41033200D02*
X58650476Y-40985580D01*
X58650476Y-40985580D02*
X58698095Y-40890342D01*
X58698095Y-40890342D02*
X58698095Y-40795104D01*
X58698095Y-40795104D02*
X58650476Y-40699866D01*
X58650476Y-40699866D02*
X58602857Y-40652247D01*
X58602857Y-40652247D02*
X58507619Y-40604628D01*
X58507619Y-40604628D02*
X58317143Y-40557009D01*
X58317143Y-40557009D02*
X58221905Y-40509390D01*
X58221905Y-40509390D02*
X58174286Y-40461771D01*
X58174286Y-40461771D02*
X58126667Y-40366533D01*
X58126667Y-40366533D02*
X58126667Y-40271295D01*
X58126667Y-40271295D02*
X58174286Y-40176057D01*
X58174286Y-40176057D02*
X58221905Y-40128438D01*
X58221905Y-40128438D02*
X58317143Y-40080819D01*
X58317143Y-40080819D02*
X58555238Y-40080819D01*
X58555238Y-40080819D02*
X58698095Y-40128438D01*
X59031429Y-40080819D02*
X59269524Y-41080819D01*
X59269524Y-41080819D02*
X59460000Y-40366533D01*
X59460000Y-40366533D02*
X59650476Y-41080819D01*
X59650476Y-41080819D02*
X59888572Y-40080819D01*
X60698095Y-40080819D02*
X60507619Y-40080819D01*
X60507619Y-40080819D02*
X60412381Y-40128438D01*
X60412381Y-40128438D02*
X60364762Y-40176057D01*
X60364762Y-40176057D02*
X60269524Y-40318914D01*
X60269524Y-40318914D02*
X60221905Y-40509390D01*
X60221905Y-40509390D02*
X60221905Y-40890342D01*
X60221905Y-40890342D02*
X60269524Y-40985580D01*
X60269524Y-40985580D02*
X60317143Y-41033200D01*
X60317143Y-41033200D02*
X60412381Y-41080819D01*
X60412381Y-41080819D02*
X60602857Y-41080819D01*
X60602857Y-41080819D02*
X60698095Y-41033200D01*
X60698095Y-41033200D02*
X60745714Y-40985580D01*
X60745714Y-40985580D02*
X60793333Y-40890342D01*
X60793333Y-40890342D02*
X60793333Y-40652247D01*
X60793333Y-40652247D02*
X60745714Y-40557009D01*
X60745714Y-40557009D02*
X60698095Y-40509390D01*
X60698095Y-40509390D02*
X60602857Y-40461771D01*
X60602857Y-40461771D02*
X60412381Y-40461771D01*
X60412381Y-40461771D02*
X60317143Y-40509390D01*
X60317143Y-40509390D02*
X60269524Y-40557009D01*
X60269524Y-40557009D02*
X60221905Y-40652247D01*
X35975714Y-106074819D02*
X35975714Y-105074819D01*
X35975714Y-105074819D02*
X36213809Y-105074819D01*
X36213809Y-105074819D02*
X36356666Y-105122438D01*
X36356666Y-105122438D02*
X36451904Y-105217676D01*
X36451904Y-105217676D02*
X36499523Y-105312914D01*
X36499523Y-105312914D02*
X36547142Y-105503390D01*
X36547142Y-105503390D02*
X36547142Y-105646247D01*
X36547142Y-105646247D02*
X36499523Y-105836723D01*
X36499523Y-105836723D02*
X36451904Y-105931961D01*
X36451904Y-105931961D02*
X36356666Y-106027200D01*
X36356666Y-106027200D02*
X36213809Y-106074819D01*
X36213809Y-106074819D02*
X35975714Y-106074819D01*
X36928095Y-105170057D02*
X36975714Y-105122438D01*
X36975714Y-105122438D02*
X37070952Y-105074819D01*
X37070952Y-105074819D02*
X37309047Y-105074819D01*
X37309047Y-105074819D02*
X37404285Y-105122438D01*
X37404285Y-105122438D02*
X37451904Y-105170057D01*
X37451904Y-105170057D02*
X37499523Y-105265295D01*
X37499523Y-105265295D02*
X37499523Y-105360533D01*
X37499523Y-105360533D02*
X37451904Y-105503390D01*
X37451904Y-105503390D02*
X36880476Y-106074819D01*
X36880476Y-106074819D02*
X37499523Y-106074819D01*
X38118571Y-105074819D02*
X38213809Y-105074819D01*
X38213809Y-105074819D02*
X38309047Y-105122438D01*
X38309047Y-105122438D02*
X38356666Y-105170057D01*
X38356666Y-105170057D02*
X38404285Y-105265295D01*
X38404285Y-105265295D02*
X38451904Y-105455771D01*
X38451904Y-105455771D02*
X38451904Y-105693866D01*
X38451904Y-105693866D02*
X38404285Y-105884342D01*
X38404285Y-105884342D02*
X38356666Y-105979580D01*
X38356666Y-105979580D02*
X38309047Y-106027200D01*
X38309047Y-106027200D02*
X38213809Y-106074819D01*
X38213809Y-106074819D02*
X38118571Y-106074819D01*
X38118571Y-106074819D02*
X38023333Y-106027200D01*
X38023333Y-106027200D02*
X37975714Y-105979580D01*
X37975714Y-105979580D02*
X37928095Y-105884342D01*
X37928095Y-105884342D02*
X37880476Y-105693866D01*
X37880476Y-105693866D02*
X37880476Y-105455771D01*
X37880476Y-105455771D02*
X37928095Y-105265295D01*
X37928095Y-105265295D02*
X37975714Y-105170057D01*
X37975714Y-105170057D02*
X38023333Y-105122438D01*
X38023333Y-105122438D02*
X38118571Y-105074819D01*
X40738095Y-105754819D02*
X40738095Y-104754819D01*
X41309523Y-105754819D02*
X40880952Y-105183390D01*
X41309523Y-104754819D02*
X40738095Y-105326247D01*
X81575714Y-106074819D02*
X81575714Y-105074819D01*
X81575714Y-105074819D02*
X81813809Y-105074819D01*
X81813809Y-105074819D02*
X81956666Y-105122438D01*
X81956666Y-105122438D02*
X82051904Y-105217676D01*
X82051904Y-105217676D02*
X82099523Y-105312914D01*
X82099523Y-105312914D02*
X82147142Y-105503390D01*
X82147142Y-105503390D02*
X82147142Y-105646247D01*
X82147142Y-105646247D02*
X82099523Y-105836723D01*
X82099523Y-105836723D02*
X82051904Y-105931961D01*
X82051904Y-105931961D02*
X81956666Y-106027200D01*
X81956666Y-106027200D02*
X81813809Y-106074819D01*
X81813809Y-106074819D02*
X81575714Y-106074819D01*
X83099523Y-106074819D02*
X82528095Y-106074819D01*
X82813809Y-106074819D02*
X82813809Y-105074819D01*
X82813809Y-105074819D02*
X82718571Y-105217676D01*
X82718571Y-105217676D02*
X82623333Y-105312914D01*
X82623333Y-105312914D02*
X82528095Y-105360533D01*
X83480476Y-105170057D02*
X83528095Y-105122438D01*
X83528095Y-105122438D02*
X83623333Y-105074819D01*
X83623333Y-105074819D02*
X83861428Y-105074819D01*
X83861428Y-105074819D02*
X83956666Y-105122438D01*
X83956666Y-105122438D02*
X84004285Y-105170057D01*
X84004285Y-105170057D02*
X84051904Y-105265295D01*
X84051904Y-105265295D02*
X84051904Y-105360533D01*
X84051904Y-105360533D02*
X84004285Y-105503390D01*
X84004285Y-105503390D02*
X83432857Y-106074819D01*
X83432857Y-106074819D02*
X84051904Y-106074819D01*
X86338095Y-105754819D02*
X86338095Y-104754819D01*
X86909523Y-105754819D02*
X86480952Y-105183390D01*
X86909523Y-104754819D02*
X86338095Y-105326247D01*
X57975714Y-40074819D02*
X57975714Y-39074819D01*
X57975714Y-39074819D02*
X58213809Y-39074819D01*
X58213809Y-39074819D02*
X58356666Y-39122438D01*
X58356666Y-39122438D02*
X58451904Y-39217676D01*
X58451904Y-39217676D02*
X58499523Y-39312914D01*
X58499523Y-39312914D02*
X58547142Y-39503390D01*
X58547142Y-39503390D02*
X58547142Y-39646247D01*
X58547142Y-39646247D02*
X58499523Y-39836723D01*
X58499523Y-39836723D02*
X58451904Y-39931961D01*
X58451904Y-39931961D02*
X58356666Y-40027200D01*
X58356666Y-40027200D02*
X58213809Y-40074819D01*
X58213809Y-40074819D02*
X57975714Y-40074819D01*
X59499523Y-40074819D02*
X58928095Y-40074819D01*
X59213809Y-40074819D02*
X59213809Y-39074819D01*
X59213809Y-39074819D02*
X59118571Y-39217676D01*
X59118571Y-39217676D02*
X59023333Y-39312914D01*
X59023333Y-39312914D02*
X58928095Y-39360533D01*
X59975714Y-40074819D02*
X60166190Y-40074819D01*
X60166190Y-40074819D02*
X60261428Y-40027200D01*
X60261428Y-40027200D02*
X60309047Y-39979580D01*
X60309047Y-39979580D02*
X60404285Y-39836723D01*
X60404285Y-39836723D02*
X60451904Y-39646247D01*
X60451904Y-39646247D02*
X60451904Y-39265295D01*
X60451904Y-39265295D02*
X60404285Y-39170057D01*
X60404285Y-39170057D02*
X60356666Y-39122438D01*
X60356666Y-39122438D02*
X60261428Y-39074819D01*
X60261428Y-39074819D02*
X60070952Y-39074819D01*
X60070952Y-39074819D02*
X59975714Y-39122438D01*
X59975714Y-39122438D02*
X59928095Y-39170057D01*
X59928095Y-39170057D02*
X59880476Y-39265295D01*
X59880476Y-39265295D02*
X59880476Y-39503390D01*
X59880476Y-39503390D02*
X59928095Y-39598628D01*
X59928095Y-39598628D02*
X59975714Y-39646247D01*
X59975714Y-39646247D02*
X60070952Y-39693866D01*
X60070952Y-39693866D02*
X60261428Y-39693866D01*
X60261428Y-39693866D02*
X60356666Y-39646247D01*
X60356666Y-39646247D02*
X60404285Y-39598628D01*
X60404285Y-39598628D02*
X60451904Y-39503390D01*
X62738095Y-39754819D02*
X62738095Y-38754819D01*
X63309523Y-39754819D02*
X62880952Y-39183390D01*
X63309523Y-38754819D02*
X62738095Y-39326247D01*
X35975714Y-61774819D02*
X35975714Y-60774819D01*
X35975714Y-60774819D02*
X36213809Y-60774819D01*
X36213809Y-60774819D02*
X36356666Y-60822438D01*
X36356666Y-60822438D02*
X36451904Y-60917676D01*
X36451904Y-60917676D02*
X36499523Y-61012914D01*
X36499523Y-61012914D02*
X36547142Y-61203390D01*
X36547142Y-61203390D02*
X36547142Y-61346247D01*
X36547142Y-61346247D02*
X36499523Y-61536723D01*
X36499523Y-61536723D02*
X36451904Y-61631961D01*
X36451904Y-61631961D02*
X36356666Y-61727200D01*
X36356666Y-61727200D02*
X36213809Y-61774819D01*
X36213809Y-61774819D02*
X35975714Y-61774819D01*
X36928095Y-60870057D02*
X36975714Y-60822438D01*
X36975714Y-60822438D02*
X37070952Y-60774819D01*
X37070952Y-60774819D02*
X37309047Y-60774819D01*
X37309047Y-60774819D02*
X37404285Y-60822438D01*
X37404285Y-60822438D02*
X37451904Y-60870057D01*
X37451904Y-60870057D02*
X37499523Y-60965295D01*
X37499523Y-60965295D02*
X37499523Y-61060533D01*
X37499523Y-61060533D02*
X37451904Y-61203390D01*
X37451904Y-61203390D02*
X36880476Y-61774819D01*
X36880476Y-61774819D02*
X37499523Y-61774819D01*
X37880476Y-60870057D02*
X37928095Y-60822438D01*
X37928095Y-60822438D02*
X38023333Y-60774819D01*
X38023333Y-60774819D02*
X38261428Y-60774819D01*
X38261428Y-60774819D02*
X38356666Y-60822438D01*
X38356666Y-60822438D02*
X38404285Y-60870057D01*
X38404285Y-60870057D02*
X38451904Y-60965295D01*
X38451904Y-60965295D02*
X38451904Y-61060533D01*
X38451904Y-61060533D02*
X38404285Y-61203390D01*
X38404285Y-61203390D02*
X37832857Y-61774819D01*
X37832857Y-61774819D02*
X38451904Y-61774819D01*
X40738095Y-61454819D02*
X40738095Y-60454819D01*
X41309523Y-61454819D02*
X40880952Y-60883390D01*
X41309523Y-60454819D02*
X40738095Y-61026247D01*
X36086667Y-85033200D02*
X36229524Y-85080819D01*
X36229524Y-85080819D02*
X36467619Y-85080819D01*
X36467619Y-85080819D02*
X36562857Y-85033200D01*
X36562857Y-85033200D02*
X36610476Y-84985580D01*
X36610476Y-84985580D02*
X36658095Y-84890342D01*
X36658095Y-84890342D02*
X36658095Y-84795104D01*
X36658095Y-84795104D02*
X36610476Y-84699866D01*
X36610476Y-84699866D02*
X36562857Y-84652247D01*
X36562857Y-84652247D02*
X36467619Y-84604628D01*
X36467619Y-84604628D02*
X36277143Y-84557009D01*
X36277143Y-84557009D02*
X36181905Y-84509390D01*
X36181905Y-84509390D02*
X36134286Y-84461771D01*
X36134286Y-84461771D02*
X36086667Y-84366533D01*
X36086667Y-84366533D02*
X36086667Y-84271295D01*
X36086667Y-84271295D02*
X36134286Y-84176057D01*
X36134286Y-84176057D02*
X36181905Y-84128438D01*
X36181905Y-84128438D02*
X36277143Y-84080819D01*
X36277143Y-84080819D02*
X36515238Y-84080819D01*
X36515238Y-84080819D02*
X36658095Y-84128438D01*
X36991429Y-84080819D02*
X37229524Y-85080819D01*
X37229524Y-85080819D02*
X37420000Y-84366533D01*
X37420000Y-84366533D02*
X37610476Y-85080819D01*
X37610476Y-85080819D02*
X37848572Y-84080819D01*
X38658095Y-84414152D02*
X38658095Y-85080819D01*
X38420000Y-84033200D02*
X38181905Y-84747485D01*
X38181905Y-84747485D02*
X38800952Y-84747485D01*
X58086667Y-19033200D02*
X58229524Y-19080819D01*
X58229524Y-19080819D02*
X58467619Y-19080819D01*
X58467619Y-19080819D02*
X58562857Y-19033200D01*
X58562857Y-19033200D02*
X58610476Y-18985580D01*
X58610476Y-18985580D02*
X58658095Y-18890342D01*
X58658095Y-18890342D02*
X58658095Y-18795104D01*
X58658095Y-18795104D02*
X58610476Y-18699866D01*
X58610476Y-18699866D02*
X58562857Y-18652247D01*
X58562857Y-18652247D02*
X58467619Y-18604628D01*
X58467619Y-18604628D02*
X58277143Y-18557009D01*
X58277143Y-18557009D02*
X58181905Y-18509390D01*
X58181905Y-18509390D02*
X58134286Y-18461771D01*
X58134286Y-18461771D02*
X58086667Y-18366533D01*
X58086667Y-18366533D02*
X58086667Y-18271295D01*
X58086667Y-18271295D02*
X58134286Y-18176057D01*
X58134286Y-18176057D02*
X58181905Y-18128438D01*
X58181905Y-18128438D02*
X58277143Y-18080819D01*
X58277143Y-18080819D02*
X58515238Y-18080819D01*
X58515238Y-18080819D02*
X58658095Y-18128438D01*
X58991429Y-18080819D02*
X59229524Y-19080819D01*
X59229524Y-19080819D02*
X59420000Y-18366533D01*
X59420000Y-18366533D02*
X59610476Y-19080819D01*
X59610476Y-19080819D02*
X59848572Y-18080819D01*
X60705714Y-18080819D02*
X60229524Y-18080819D01*
X60229524Y-18080819D02*
X60181905Y-18557009D01*
X60181905Y-18557009D02*
X60229524Y-18509390D01*
X60229524Y-18509390D02*
X60324762Y-18461771D01*
X60324762Y-18461771D02*
X60562857Y-18461771D01*
X60562857Y-18461771D02*
X60658095Y-18509390D01*
X60658095Y-18509390D02*
X60705714Y-18557009D01*
X60705714Y-18557009D02*
X60753333Y-18652247D01*
X60753333Y-18652247D02*
X60753333Y-18890342D01*
X60753333Y-18890342D02*
X60705714Y-18985580D01*
X60705714Y-18985580D02*
X60658095Y-19033200D01*
X60658095Y-19033200D02*
X60562857Y-19080819D01*
X60562857Y-19080819D02*
X60324762Y-19080819D01*
X60324762Y-19080819D02*
X60229524Y-19033200D01*
X60229524Y-19033200D02*
X60181905Y-18985580D01*
X36125714Y-84024819D02*
X36125714Y-83024819D01*
X36125714Y-83024819D02*
X36363809Y-83024819D01*
X36363809Y-83024819D02*
X36506666Y-83072438D01*
X36506666Y-83072438D02*
X36601904Y-83167676D01*
X36601904Y-83167676D02*
X36649523Y-83262914D01*
X36649523Y-83262914D02*
X36697142Y-83453390D01*
X36697142Y-83453390D02*
X36697142Y-83596247D01*
X36697142Y-83596247D02*
X36649523Y-83786723D01*
X36649523Y-83786723D02*
X36601904Y-83881961D01*
X36601904Y-83881961D02*
X36506666Y-83977200D01*
X36506666Y-83977200D02*
X36363809Y-84024819D01*
X36363809Y-84024819D02*
X36125714Y-84024819D01*
X37078095Y-83120057D02*
X37125714Y-83072438D01*
X37125714Y-83072438D02*
X37220952Y-83024819D01*
X37220952Y-83024819D02*
X37459047Y-83024819D01*
X37459047Y-83024819D02*
X37554285Y-83072438D01*
X37554285Y-83072438D02*
X37601904Y-83120057D01*
X37601904Y-83120057D02*
X37649523Y-83215295D01*
X37649523Y-83215295D02*
X37649523Y-83310533D01*
X37649523Y-83310533D02*
X37601904Y-83453390D01*
X37601904Y-83453390D02*
X37030476Y-84024819D01*
X37030476Y-84024819D02*
X37649523Y-84024819D01*
X38601904Y-84024819D02*
X38030476Y-84024819D01*
X38316190Y-84024819D02*
X38316190Y-83024819D01*
X38316190Y-83024819D02*
X38220952Y-83167676D01*
X38220952Y-83167676D02*
X38125714Y-83262914D01*
X38125714Y-83262914D02*
X38030476Y-83310533D01*
X40888095Y-83704819D02*
X40888095Y-82704819D01*
X41459523Y-83704819D02*
X41030952Y-83133390D01*
X41459523Y-82704819D02*
X40888095Y-83276247D01*
X81535714Y-62054819D02*
X81535714Y-61054819D01*
X81535714Y-61054819D02*
X81773809Y-61054819D01*
X81773809Y-61054819D02*
X81916666Y-61102438D01*
X81916666Y-61102438D02*
X82011904Y-61197676D01*
X82011904Y-61197676D02*
X82059523Y-61292914D01*
X82059523Y-61292914D02*
X82107142Y-61483390D01*
X82107142Y-61483390D02*
X82107142Y-61626247D01*
X82107142Y-61626247D02*
X82059523Y-61816723D01*
X82059523Y-61816723D02*
X82011904Y-61911961D01*
X82011904Y-61911961D02*
X81916666Y-62007200D01*
X81916666Y-62007200D02*
X81773809Y-62054819D01*
X81773809Y-62054819D02*
X81535714Y-62054819D01*
X83059523Y-62054819D02*
X82488095Y-62054819D01*
X82773809Y-62054819D02*
X82773809Y-61054819D01*
X82773809Y-61054819D02*
X82678571Y-61197676D01*
X82678571Y-61197676D02*
X82583333Y-61292914D01*
X82583333Y-61292914D02*
X82488095Y-61340533D01*
X83916666Y-61388152D02*
X83916666Y-62054819D01*
X83678571Y-61007200D02*
X83440476Y-61721485D01*
X83440476Y-61721485D02*
X84059523Y-61721485D01*
X86298095Y-61734819D02*
X86298095Y-60734819D01*
X86869523Y-61734819D02*
X86440952Y-61163390D01*
X86869523Y-60734819D02*
X86298095Y-61306247D01*
X58475714Y-84074819D02*
X58475714Y-83074819D01*
X58475714Y-83074819D02*
X58713809Y-83074819D01*
X58713809Y-83074819D02*
X58856666Y-83122438D01*
X58856666Y-83122438D02*
X58951904Y-83217676D01*
X58951904Y-83217676D02*
X58999523Y-83312914D01*
X58999523Y-83312914D02*
X59047142Y-83503390D01*
X59047142Y-83503390D02*
X59047142Y-83646247D01*
X59047142Y-83646247D02*
X58999523Y-83836723D01*
X58999523Y-83836723D02*
X58951904Y-83931961D01*
X58951904Y-83931961D02*
X58856666Y-84027200D01*
X58856666Y-84027200D02*
X58713809Y-84074819D01*
X58713809Y-84074819D02*
X58475714Y-84074819D01*
X59999523Y-84074819D02*
X59428095Y-84074819D01*
X59713809Y-84074819D02*
X59713809Y-83074819D01*
X59713809Y-83074819D02*
X59618571Y-83217676D01*
X59618571Y-83217676D02*
X59523333Y-83312914D01*
X59523333Y-83312914D02*
X59428095Y-83360533D01*
X60332857Y-83074819D02*
X60999523Y-83074819D01*
X60999523Y-83074819D02*
X60570952Y-84074819D01*
X63238095Y-83754819D02*
X63238095Y-82754819D01*
X63809523Y-83754819D02*
X63380952Y-83183390D01*
X63809523Y-82754819D02*
X63238095Y-83326247D01*
X35976667Y-19073200D02*
X36119524Y-19120819D01*
X36119524Y-19120819D02*
X36357619Y-19120819D01*
X36357619Y-19120819D02*
X36452857Y-19073200D01*
X36452857Y-19073200D02*
X36500476Y-19025580D01*
X36500476Y-19025580D02*
X36548095Y-18930342D01*
X36548095Y-18930342D02*
X36548095Y-18835104D01*
X36548095Y-18835104D02*
X36500476Y-18739866D01*
X36500476Y-18739866D02*
X36452857Y-18692247D01*
X36452857Y-18692247D02*
X36357619Y-18644628D01*
X36357619Y-18644628D02*
X36167143Y-18597009D01*
X36167143Y-18597009D02*
X36071905Y-18549390D01*
X36071905Y-18549390D02*
X36024286Y-18501771D01*
X36024286Y-18501771D02*
X35976667Y-18406533D01*
X35976667Y-18406533D02*
X35976667Y-18311295D01*
X35976667Y-18311295D02*
X36024286Y-18216057D01*
X36024286Y-18216057D02*
X36071905Y-18168438D01*
X36071905Y-18168438D02*
X36167143Y-18120819D01*
X36167143Y-18120819D02*
X36405238Y-18120819D01*
X36405238Y-18120819D02*
X36548095Y-18168438D01*
X36881429Y-18120819D02*
X37119524Y-19120819D01*
X37119524Y-19120819D02*
X37310000Y-18406533D01*
X37310000Y-18406533D02*
X37500476Y-19120819D01*
X37500476Y-19120819D02*
X37738572Y-18120819D01*
X38643333Y-19120819D02*
X38071905Y-19120819D01*
X38357619Y-19120819D02*
X38357619Y-18120819D01*
X38357619Y-18120819D02*
X38262381Y-18263676D01*
X38262381Y-18263676D02*
X38167143Y-18358914D01*
X38167143Y-18358914D02*
X38071905Y-18406533D01*
X58475714Y-62074819D02*
X58475714Y-61074819D01*
X58475714Y-61074819D02*
X58713809Y-61074819D01*
X58713809Y-61074819D02*
X58856666Y-61122438D01*
X58856666Y-61122438D02*
X58951904Y-61217676D01*
X58951904Y-61217676D02*
X58999523Y-61312914D01*
X58999523Y-61312914D02*
X59047142Y-61503390D01*
X59047142Y-61503390D02*
X59047142Y-61646247D01*
X59047142Y-61646247D02*
X58999523Y-61836723D01*
X58999523Y-61836723D02*
X58951904Y-61931961D01*
X58951904Y-61931961D02*
X58856666Y-62027200D01*
X58856666Y-62027200D02*
X58713809Y-62074819D01*
X58713809Y-62074819D02*
X58475714Y-62074819D01*
X59999523Y-62074819D02*
X59428095Y-62074819D01*
X59713809Y-62074819D02*
X59713809Y-61074819D01*
X59713809Y-61074819D02*
X59618571Y-61217676D01*
X59618571Y-61217676D02*
X59523333Y-61312914D01*
X59523333Y-61312914D02*
X59428095Y-61360533D01*
X60570952Y-61503390D02*
X60475714Y-61455771D01*
X60475714Y-61455771D02*
X60428095Y-61408152D01*
X60428095Y-61408152D02*
X60380476Y-61312914D01*
X60380476Y-61312914D02*
X60380476Y-61265295D01*
X60380476Y-61265295D02*
X60428095Y-61170057D01*
X60428095Y-61170057D02*
X60475714Y-61122438D01*
X60475714Y-61122438D02*
X60570952Y-61074819D01*
X60570952Y-61074819D02*
X60761428Y-61074819D01*
X60761428Y-61074819D02*
X60856666Y-61122438D01*
X60856666Y-61122438D02*
X60904285Y-61170057D01*
X60904285Y-61170057D02*
X60951904Y-61265295D01*
X60951904Y-61265295D02*
X60951904Y-61312914D01*
X60951904Y-61312914D02*
X60904285Y-61408152D01*
X60904285Y-61408152D02*
X60856666Y-61455771D01*
X60856666Y-61455771D02*
X60761428Y-61503390D01*
X60761428Y-61503390D02*
X60570952Y-61503390D01*
X60570952Y-61503390D02*
X60475714Y-61551009D01*
X60475714Y-61551009D02*
X60428095Y-61598628D01*
X60428095Y-61598628D02*
X60380476Y-61693866D01*
X60380476Y-61693866D02*
X60380476Y-61884342D01*
X60380476Y-61884342D02*
X60428095Y-61979580D01*
X60428095Y-61979580D02*
X60475714Y-62027200D01*
X60475714Y-62027200D02*
X60570952Y-62074819D01*
X60570952Y-62074819D02*
X60761428Y-62074819D01*
X60761428Y-62074819D02*
X60856666Y-62027200D01*
X60856666Y-62027200D02*
X60904285Y-61979580D01*
X60904285Y-61979580D02*
X60951904Y-61884342D01*
X60951904Y-61884342D02*
X60951904Y-61693866D01*
X60951904Y-61693866D02*
X60904285Y-61598628D01*
X60904285Y-61598628D02*
X60856666Y-61551009D01*
X60856666Y-61551009D02*
X60761428Y-61503390D01*
X63238095Y-61754819D02*
X63238095Y-60754819D01*
X63809523Y-61754819D02*
X63380952Y-61183390D01*
X63809523Y-60754819D02*
X63238095Y-61326247D01*
X36086667Y-63033200D02*
X36229524Y-63080819D01*
X36229524Y-63080819D02*
X36467619Y-63080819D01*
X36467619Y-63080819D02*
X36562857Y-63033200D01*
X36562857Y-63033200D02*
X36610476Y-62985580D01*
X36610476Y-62985580D02*
X36658095Y-62890342D01*
X36658095Y-62890342D02*
X36658095Y-62795104D01*
X36658095Y-62795104D02*
X36610476Y-62699866D01*
X36610476Y-62699866D02*
X36562857Y-62652247D01*
X36562857Y-62652247D02*
X36467619Y-62604628D01*
X36467619Y-62604628D02*
X36277143Y-62557009D01*
X36277143Y-62557009D02*
X36181905Y-62509390D01*
X36181905Y-62509390D02*
X36134286Y-62461771D01*
X36134286Y-62461771D02*
X36086667Y-62366533D01*
X36086667Y-62366533D02*
X36086667Y-62271295D01*
X36086667Y-62271295D02*
X36134286Y-62176057D01*
X36134286Y-62176057D02*
X36181905Y-62128438D01*
X36181905Y-62128438D02*
X36277143Y-62080819D01*
X36277143Y-62080819D02*
X36515238Y-62080819D01*
X36515238Y-62080819D02*
X36658095Y-62128438D01*
X36991429Y-62080819D02*
X37229524Y-63080819D01*
X37229524Y-63080819D02*
X37420000Y-62366533D01*
X37420000Y-62366533D02*
X37610476Y-63080819D01*
X37610476Y-63080819D02*
X37848572Y-62080819D01*
X38134286Y-62080819D02*
X38753333Y-62080819D01*
X38753333Y-62080819D02*
X38420000Y-62461771D01*
X38420000Y-62461771D02*
X38562857Y-62461771D01*
X38562857Y-62461771D02*
X38658095Y-62509390D01*
X38658095Y-62509390D02*
X38705714Y-62557009D01*
X38705714Y-62557009D02*
X38753333Y-62652247D01*
X38753333Y-62652247D02*
X38753333Y-62890342D01*
X38753333Y-62890342D02*
X38705714Y-62985580D01*
X38705714Y-62985580D02*
X38658095Y-63033200D01*
X38658095Y-63033200D02*
X38562857Y-63080819D01*
X38562857Y-63080819D02*
X38277143Y-63080819D01*
X38277143Y-63080819D02*
X38181905Y-63033200D01*
X38181905Y-63033200D02*
X38134286Y-62985580D01*
X35975714Y-40074819D02*
X35975714Y-39074819D01*
X35975714Y-39074819D02*
X36213809Y-39074819D01*
X36213809Y-39074819D02*
X36356666Y-39122438D01*
X36356666Y-39122438D02*
X36451904Y-39217676D01*
X36451904Y-39217676D02*
X36499523Y-39312914D01*
X36499523Y-39312914D02*
X36547142Y-39503390D01*
X36547142Y-39503390D02*
X36547142Y-39646247D01*
X36547142Y-39646247D02*
X36499523Y-39836723D01*
X36499523Y-39836723D02*
X36451904Y-39931961D01*
X36451904Y-39931961D02*
X36356666Y-40027200D01*
X36356666Y-40027200D02*
X36213809Y-40074819D01*
X36213809Y-40074819D02*
X35975714Y-40074819D01*
X36928095Y-39170057D02*
X36975714Y-39122438D01*
X36975714Y-39122438D02*
X37070952Y-39074819D01*
X37070952Y-39074819D02*
X37309047Y-39074819D01*
X37309047Y-39074819D02*
X37404285Y-39122438D01*
X37404285Y-39122438D02*
X37451904Y-39170057D01*
X37451904Y-39170057D02*
X37499523Y-39265295D01*
X37499523Y-39265295D02*
X37499523Y-39360533D01*
X37499523Y-39360533D02*
X37451904Y-39503390D01*
X37451904Y-39503390D02*
X36880476Y-40074819D01*
X36880476Y-40074819D02*
X37499523Y-40074819D01*
X37832857Y-39074819D02*
X38451904Y-39074819D01*
X38451904Y-39074819D02*
X38118571Y-39455771D01*
X38118571Y-39455771D02*
X38261428Y-39455771D01*
X38261428Y-39455771D02*
X38356666Y-39503390D01*
X38356666Y-39503390D02*
X38404285Y-39551009D01*
X38404285Y-39551009D02*
X38451904Y-39646247D01*
X38451904Y-39646247D02*
X38451904Y-39884342D01*
X38451904Y-39884342D02*
X38404285Y-39979580D01*
X38404285Y-39979580D02*
X38356666Y-40027200D01*
X38356666Y-40027200D02*
X38261428Y-40074819D01*
X38261428Y-40074819D02*
X37975714Y-40074819D01*
X37975714Y-40074819D02*
X37880476Y-40027200D01*
X37880476Y-40027200D02*
X37832857Y-39979580D01*
X40738095Y-39754819D02*
X40738095Y-38754819D01*
X41309523Y-39754819D02*
X40880952Y-39183390D01*
X41309523Y-38754819D02*
X40738095Y-39326247D01*
X81475714Y-40074819D02*
X81475714Y-39074819D01*
X81475714Y-39074819D02*
X81713809Y-39074819D01*
X81713809Y-39074819D02*
X81856666Y-39122438D01*
X81856666Y-39122438D02*
X81951904Y-39217676D01*
X81951904Y-39217676D02*
X81999523Y-39312914D01*
X81999523Y-39312914D02*
X82047142Y-39503390D01*
X82047142Y-39503390D02*
X82047142Y-39646247D01*
X82047142Y-39646247D02*
X81999523Y-39836723D01*
X81999523Y-39836723D02*
X81951904Y-39931961D01*
X81951904Y-39931961D02*
X81856666Y-40027200D01*
X81856666Y-40027200D02*
X81713809Y-40074819D01*
X81713809Y-40074819D02*
X81475714Y-40074819D01*
X82999523Y-40074819D02*
X82428095Y-40074819D01*
X82713809Y-40074819D02*
X82713809Y-39074819D01*
X82713809Y-39074819D02*
X82618571Y-39217676D01*
X82618571Y-39217676D02*
X82523333Y-39312914D01*
X82523333Y-39312914D02*
X82428095Y-39360533D01*
X83904285Y-39074819D02*
X83428095Y-39074819D01*
X83428095Y-39074819D02*
X83380476Y-39551009D01*
X83380476Y-39551009D02*
X83428095Y-39503390D01*
X83428095Y-39503390D02*
X83523333Y-39455771D01*
X83523333Y-39455771D02*
X83761428Y-39455771D01*
X83761428Y-39455771D02*
X83856666Y-39503390D01*
X83856666Y-39503390D02*
X83904285Y-39551009D01*
X83904285Y-39551009D02*
X83951904Y-39646247D01*
X83951904Y-39646247D02*
X83951904Y-39884342D01*
X83951904Y-39884342D02*
X83904285Y-39979580D01*
X83904285Y-39979580D02*
X83856666Y-40027200D01*
X83856666Y-40027200D02*
X83761428Y-40074819D01*
X83761428Y-40074819D02*
X83523333Y-40074819D01*
X83523333Y-40074819D02*
X83428095Y-40027200D01*
X83428095Y-40027200D02*
X83380476Y-39979580D01*
X86238095Y-39754819D02*
X86238095Y-38754819D01*
X86809523Y-39754819D02*
X86380952Y-39183390D01*
X86809523Y-38754819D02*
X86238095Y-39326247D01*
X35976667Y-41033200D02*
X36119524Y-41080819D01*
X36119524Y-41080819D02*
X36357619Y-41080819D01*
X36357619Y-41080819D02*
X36452857Y-41033200D01*
X36452857Y-41033200D02*
X36500476Y-40985580D01*
X36500476Y-40985580D02*
X36548095Y-40890342D01*
X36548095Y-40890342D02*
X36548095Y-40795104D01*
X36548095Y-40795104D02*
X36500476Y-40699866D01*
X36500476Y-40699866D02*
X36452857Y-40652247D01*
X36452857Y-40652247D02*
X36357619Y-40604628D01*
X36357619Y-40604628D02*
X36167143Y-40557009D01*
X36167143Y-40557009D02*
X36071905Y-40509390D01*
X36071905Y-40509390D02*
X36024286Y-40461771D01*
X36024286Y-40461771D02*
X35976667Y-40366533D01*
X35976667Y-40366533D02*
X35976667Y-40271295D01*
X35976667Y-40271295D02*
X36024286Y-40176057D01*
X36024286Y-40176057D02*
X36071905Y-40128438D01*
X36071905Y-40128438D02*
X36167143Y-40080819D01*
X36167143Y-40080819D02*
X36405238Y-40080819D01*
X36405238Y-40080819D02*
X36548095Y-40128438D01*
X36881429Y-40080819D02*
X37119524Y-41080819D01*
X37119524Y-41080819D02*
X37310000Y-40366533D01*
X37310000Y-40366533D02*
X37500476Y-41080819D01*
X37500476Y-41080819D02*
X37738572Y-40080819D01*
X38071905Y-40176057D02*
X38119524Y-40128438D01*
X38119524Y-40128438D02*
X38214762Y-40080819D01*
X38214762Y-40080819D02*
X38452857Y-40080819D01*
X38452857Y-40080819D02*
X38548095Y-40128438D01*
X38548095Y-40128438D02*
X38595714Y-40176057D01*
X38595714Y-40176057D02*
X38643333Y-40271295D01*
X38643333Y-40271295D02*
X38643333Y-40366533D01*
X38643333Y-40366533D02*
X38595714Y-40509390D01*
X38595714Y-40509390D02*
X38024286Y-41080819D01*
X38024286Y-41080819D02*
X38643333Y-41080819D01*
X81575714Y-83974819D02*
X81575714Y-82974819D01*
X81575714Y-82974819D02*
X81813809Y-82974819D01*
X81813809Y-82974819D02*
X81956666Y-83022438D01*
X81956666Y-83022438D02*
X82051904Y-83117676D01*
X82051904Y-83117676D02*
X82099523Y-83212914D01*
X82099523Y-83212914D02*
X82147142Y-83403390D01*
X82147142Y-83403390D02*
X82147142Y-83546247D01*
X82147142Y-83546247D02*
X82099523Y-83736723D01*
X82099523Y-83736723D02*
X82051904Y-83831961D01*
X82051904Y-83831961D02*
X81956666Y-83927200D01*
X81956666Y-83927200D02*
X81813809Y-83974819D01*
X81813809Y-83974819D02*
X81575714Y-83974819D01*
X83099523Y-83974819D02*
X82528095Y-83974819D01*
X82813809Y-83974819D02*
X82813809Y-82974819D01*
X82813809Y-82974819D02*
X82718571Y-83117676D01*
X82718571Y-83117676D02*
X82623333Y-83212914D01*
X82623333Y-83212914D02*
X82528095Y-83260533D01*
X83432857Y-82974819D02*
X84051904Y-82974819D01*
X84051904Y-82974819D02*
X83718571Y-83355771D01*
X83718571Y-83355771D02*
X83861428Y-83355771D01*
X83861428Y-83355771D02*
X83956666Y-83403390D01*
X83956666Y-83403390D02*
X84004285Y-83451009D01*
X84004285Y-83451009D02*
X84051904Y-83546247D01*
X84051904Y-83546247D02*
X84051904Y-83784342D01*
X84051904Y-83784342D02*
X84004285Y-83879580D01*
X84004285Y-83879580D02*
X83956666Y-83927200D01*
X83956666Y-83927200D02*
X83861428Y-83974819D01*
X83861428Y-83974819D02*
X83575714Y-83974819D01*
X83575714Y-83974819D02*
X83480476Y-83927200D01*
X83480476Y-83927200D02*
X83432857Y-83879580D01*
X86338095Y-83654819D02*
X86338095Y-82654819D01*
X86909523Y-83654819D02*
X86480952Y-83083390D01*
X86909523Y-82654819D02*
X86338095Y-83226247D01*
X81166667Y-19033200D02*
X81309524Y-19080819D01*
X81309524Y-19080819D02*
X81547619Y-19080819D01*
X81547619Y-19080819D02*
X81642857Y-19033200D01*
X81642857Y-19033200D02*
X81690476Y-18985580D01*
X81690476Y-18985580D02*
X81738095Y-18890342D01*
X81738095Y-18890342D02*
X81738095Y-18795104D01*
X81738095Y-18795104D02*
X81690476Y-18699866D01*
X81690476Y-18699866D02*
X81642857Y-18652247D01*
X81642857Y-18652247D02*
X81547619Y-18604628D01*
X81547619Y-18604628D02*
X81357143Y-18557009D01*
X81357143Y-18557009D02*
X81261905Y-18509390D01*
X81261905Y-18509390D02*
X81214286Y-18461771D01*
X81214286Y-18461771D02*
X81166667Y-18366533D01*
X81166667Y-18366533D02*
X81166667Y-18271295D01*
X81166667Y-18271295D02*
X81214286Y-18176057D01*
X81214286Y-18176057D02*
X81261905Y-18128438D01*
X81261905Y-18128438D02*
X81357143Y-18080819D01*
X81357143Y-18080819D02*
X81595238Y-18080819D01*
X81595238Y-18080819D02*
X81738095Y-18128438D01*
X82071429Y-18080819D02*
X82309524Y-19080819D01*
X82309524Y-19080819D02*
X82500000Y-18366533D01*
X82500000Y-18366533D02*
X82690476Y-19080819D01*
X82690476Y-19080819D02*
X82928572Y-18080819D01*
X83357143Y-19080819D02*
X83547619Y-19080819D01*
X83547619Y-19080819D02*
X83642857Y-19033200D01*
X83642857Y-19033200D02*
X83690476Y-18985580D01*
X83690476Y-18985580D02*
X83785714Y-18842723D01*
X83785714Y-18842723D02*
X83833333Y-18652247D01*
X83833333Y-18652247D02*
X83833333Y-18271295D01*
X83833333Y-18271295D02*
X83785714Y-18176057D01*
X83785714Y-18176057D02*
X83738095Y-18128438D01*
X83738095Y-18128438D02*
X83642857Y-18080819D01*
X83642857Y-18080819D02*
X83452381Y-18080819D01*
X83452381Y-18080819D02*
X83357143Y-18128438D01*
X83357143Y-18128438D02*
X83309524Y-18176057D01*
X83309524Y-18176057D02*
X83261905Y-18271295D01*
X83261905Y-18271295D02*
X83261905Y-18509390D01*
X83261905Y-18509390D02*
X83309524Y-18604628D01*
X83309524Y-18604628D02*
X83357143Y-18652247D01*
X83357143Y-18652247D02*
X83452381Y-18699866D01*
X83452381Y-18699866D02*
X83642857Y-18699866D01*
X83642857Y-18699866D02*
X83738095Y-18652247D01*
X83738095Y-18652247D02*
X83785714Y-18604628D01*
X83785714Y-18604628D02*
X83833333Y-18509390D01*
X80800476Y-41023200D02*
X80943333Y-41070819D01*
X80943333Y-41070819D02*
X81181428Y-41070819D01*
X81181428Y-41070819D02*
X81276666Y-41023200D01*
X81276666Y-41023200D02*
X81324285Y-40975580D01*
X81324285Y-40975580D02*
X81371904Y-40880342D01*
X81371904Y-40880342D02*
X81371904Y-40785104D01*
X81371904Y-40785104D02*
X81324285Y-40689866D01*
X81324285Y-40689866D02*
X81276666Y-40642247D01*
X81276666Y-40642247D02*
X81181428Y-40594628D01*
X81181428Y-40594628D02*
X80990952Y-40547009D01*
X80990952Y-40547009D02*
X80895714Y-40499390D01*
X80895714Y-40499390D02*
X80848095Y-40451771D01*
X80848095Y-40451771D02*
X80800476Y-40356533D01*
X80800476Y-40356533D02*
X80800476Y-40261295D01*
X80800476Y-40261295D02*
X80848095Y-40166057D01*
X80848095Y-40166057D02*
X80895714Y-40118438D01*
X80895714Y-40118438D02*
X80990952Y-40070819D01*
X80990952Y-40070819D02*
X81229047Y-40070819D01*
X81229047Y-40070819D02*
X81371904Y-40118438D01*
X81705238Y-40070819D02*
X81943333Y-41070819D01*
X81943333Y-41070819D02*
X82133809Y-40356533D01*
X82133809Y-40356533D02*
X82324285Y-41070819D01*
X82324285Y-41070819D02*
X82562381Y-40070819D01*
X83467142Y-41070819D02*
X82895714Y-41070819D01*
X83181428Y-41070819D02*
X83181428Y-40070819D01*
X83181428Y-40070819D02*
X83086190Y-40213676D01*
X83086190Y-40213676D02*
X82990952Y-40308914D01*
X82990952Y-40308914D02*
X82895714Y-40356533D01*
X84086190Y-40070819D02*
X84181428Y-40070819D01*
X84181428Y-40070819D02*
X84276666Y-40118438D01*
X84276666Y-40118438D02*
X84324285Y-40166057D01*
X84324285Y-40166057D02*
X84371904Y-40261295D01*
X84371904Y-40261295D02*
X84419523Y-40451771D01*
X84419523Y-40451771D02*
X84419523Y-40689866D01*
X84419523Y-40689866D02*
X84371904Y-40880342D01*
X84371904Y-40880342D02*
X84324285Y-40975580D01*
X84324285Y-40975580D02*
X84276666Y-41023200D01*
X84276666Y-41023200D02*
X84181428Y-41070819D01*
X84181428Y-41070819D02*
X84086190Y-41070819D01*
X84086190Y-41070819D02*
X83990952Y-41023200D01*
X83990952Y-41023200D02*
X83943333Y-40975580D01*
X83943333Y-40975580D02*
X83895714Y-40880342D01*
X83895714Y-40880342D02*
X83848095Y-40689866D01*
X83848095Y-40689866D02*
X83848095Y-40451771D01*
X83848095Y-40451771D02*
X83895714Y-40261295D01*
X83895714Y-40261295D02*
X83943333Y-40166057D01*
X83943333Y-40166057D02*
X83990952Y-40118438D01*
X83990952Y-40118438D02*
X84086190Y-40070819D01*
X80900476Y-63023200D02*
X81043333Y-63070819D01*
X81043333Y-63070819D02*
X81281428Y-63070819D01*
X81281428Y-63070819D02*
X81376666Y-63023200D01*
X81376666Y-63023200D02*
X81424285Y-62975580D01*
X81424285Y-62975580D02*
X81471904Y-62880342D01*
X81471904Y-62880342D02*
X81471904Y-62785104D01*
X81471904Y-62785104D02*
X81424285Y-62689866D01*
X81424285Y-62689866D02*
X81376666Y-62642247D01*
X81376666Y-62642247D02*
X81281428Y-62594628D01*
X81281428Y-62594628D02*
X81090952Y-62547009D01*
X81090952Y-62547009D02*
X80995714Y-62499390D01*
X80995714Y-62499390D02*
X80948095Y-62451771D01*
X80948095Y-62451771D02*
X80900476Y-62356533D01*
X80900476Y-62356533D02*
X80900476Y-62261295D01*
X80900476Y-62261295D02*
X80948095Y-62166057D01*
X80948095Y-62166057D02*
X80995714Y-62118438D01*
X80995714Y-62118438D02*
X81090952Y-62070819D01*
X81090952Y-62070819D02*
X81329047Y-62070819D01*
X81329047Y-62070819D02*
X81471904Y-62118438D01*
X81805238Y-62070819D02*
X82043333Y-63070819D01*
X82043333Y-63070819D02*
X82233809Y-62356533D01*
X82233809Y-62356533D02*
X82424285Y-63070819D01*
X82424285Y-63070819D02*
X82662381Y-62070819D01*
X83567142Y-63070819D02*
X82995714Y-63070819D01*
X83281428Y-63070819D02*
X83281428Y-62070819D01*
X83281428Y-62070819D02*
X83186190Y-62213676D01*
X83186190Y-62213676D02*
X83090952Y-62308914D01*
X83090952Y-62308914D02*
X82995714Y-62356533D01*
X84519523Y-63070819D02*
X83948095Y-63070819D01*
X84233809Y-63070819D02*
X84233809Y-62070819D01*
X84233809Y-62070819D02*
X84138571Y-62213676D01*
X84138571Y-62213676D02*
X84043333Y-62308914D01*
X84043333Y-62308914D02*
X83948095Y-62356533D01*
X97274819Y-101016666D02*
X96798628Y-101349999D01*
X97274819Y-101588094D02*
X96274819Y-101588094D01*
X96274819Y-101588094D02*
X96274819Y-101207142D01*
X96274819Y-101207142D02*
X96322438Y-101111904D01*
X96322438Y-101111904D02*
X96370057Y-101064285D01*
X96370057Y-101064285D02*
X96465295Y-101016666D01*
X96465295Y-101016666D02*
X96608152Y-101016666D01*
X96608152Y-101016666D02*
X96703390Y-101064285D01*
X96703390Y-101064285D02*
X96751009Y-101111904D01*
X96751009Y-101111904D02*
X96798628Y-101207142D01*
X96798628Y-101207142D02*
X96798628Y-101588094D01*
X96608152Y-100159523D02*
X97274819Y-100159523D01*
X96227200Y-100397618D02*
X96941485Y-100635713D01*
X96941485Y-100635713D02*
X96941485Y-100016666D01*
X46534819Y-100566666D02*
X46058628Y-100899999D01*
X46534819Y-101138094D02*
X45534819Y-101138094D01*
X45534819Y-101138094D02*
X45534819Y-100757142D01*
X45534819Y-100757142D02*
X45582438Y-100661904D01*
X45582438Y-100661904D02*
X45630057Y-100614285D01*
X45630057Y-100614285D02*
X45725295Y-100566666D01*
X45725295Y-100566666D02*
X45868152Y-100566666D01*
X45868152Y-100566666D02*
X45963390Y-100614285D01*
X45963390Y-100614285D02*
X46011009Y-100661904D01*
X46011009Y-100661904D02*
X46058628Y-100757142D01*
X46058628Y-100757142D02*
X46058628Y-101138094D01*
X45630057Y-100185713D02*
X45582438Y-100138094D01*
X45582438Y-100138094D02*
X45534819Y-100042856D01*
X45534819Y-100042856D02*
X45534819Y-99804761D01*
X45534819Y-99804761D02*
X45582438Y-99709523D01*
X45582438Y-99709523D02*
X45630057Y-99661904D01*
X45630057Y-99661904D02*
X45725295Y-99614285D01*
X45725295Y-99614285D02*
X45820533Y-99614285D01*
X45820533Y-99614285D02*
X45963390Y-99661904D01*
X45963390Y-99661904D02*
X46534819Y-100233332D01*
X46534819Y-100233332D02*
X46534819Y-99614285D01*
X92034819Y-46866666D02*
X91558628Y-47199999D01*
X92034819Y-47438094D02*
X91034819Y-47438094D01*
X91034819Y-47438094D02*
X91034819Y-47057142D01*
X91034819Y-47057142D02*
X91082438Y-46961904D01*
X91082438Y-46961904D02*
X91130057Y-46914285D01*
X91130057Y-46914285D02*
X91225295Y-46866666D01*
X91225295Y-46866666D02*
X91368152Y-46866666D01*
X91368152Y-46866666D02*
X91463390Y-46914285D01*
X91463390Y-46914285D02*
X91511009Y-46961904D01*
X91511009Y-46961904D02*
X91558628Y-47057142D01*
X91558628Y-47057142D02*
X91558628Y-47438094D01*
X91034819Y-46009523D02*
X91034819Y-46199999D01*
X91034819Y-46199999D02*
X91082438Y-46295237D01*
X91082438Y-46295237D02*
X91130057Y-46342856D01*
X91130057Y-46342856D02*
X91272914Y-46438094D01*
X91272914Y-46438094D02*
X91463390Y-46485713D01*
X91463390Y-46485713D02*
X91844342Y-46485713D01*
X91844342Y-46485713D02*
X91939580Y-46438094D01*
X91939580Y-46438094D02*
X91987200Y-46390475D01*
X91987200Y-46390475D02*
X92034819Y-46295237D01*
X92034819Y-46295237D02*
X92034819Y-46104761D01*
X92034819Y-46104761D02*
X91987200Y-46009523D01*
X91987200Y-46009523D02*
X91939580Y-45961904D01*
X91939580Y-45961904D02*
X91844342Y-45914285D01*
X91844342Y-45914285D02*
X91606247Y-45914285D01*
X91606247Y-45914285D02*
X91511009Y-45961904D01*
X91511009Y-45961904D02*
X91463390Y-46009523D01*
X91463390Y-46009523D02*
X91415771Y-46104761D01*
X91415771Y-46104761D02*
X91415771Y-46295237D01*
X91415771Y-46295237D02*
X91463390Y-46390475D01*
X91463390Y-46390475D02*
X91511009Y-46438094D01*
X91511009Y-46438094D02*
X91606247Y-46485713D01*
X92084819Y-25166666D02*
X91608628Y-25499999D01*
X92084819Y-25738094D02*
X91084819Y-25738094D01*
X91084819Y-25738094D02*
X91084819Y-25357142D01*
X91084819Y-25357142D02*
X91132438Y-25261904D01*
X91132438Y-25261904D02*
X91180057Y-25214285D01*
X91180057Y-25214285D02*
X91275295Y-25166666D01*
X91275295Y-25166666D02*
X91418152Y-25166666D01*
X91418152Y-25166666D02*
X91513390Y-25214285D01*
X91513390Y-25214285D02*
X91561009Y-25261904D01*
X91561009Y-25261904D02*
X91608628Y-25357142D01*
X91608628Y-25357142D02*
X91608628Y-25738094D01*
X91084819Y-24261904D02*
X91084819Y-24738094D01*
X91084819Y-24738094D02*
X91561009Y-24785713D01*
X91561009Y-24785713D02*
X91513390Y-24738094D01*
X91513390Y-24738094D02*
X91465771Y-24642856D01*
X91465771Y-24642856D02*
X91465771Y-24404761D01*
X91465771Y-24404761D02*
X91513390Y-24309523D01*
X91513390Y-24309523D02*
X91561009Y-24261904D01*
X91561009Y-24261904D02*
X91656247Y-24214285D01*
X91656247Y-24214285D02*
X91894342Y-24214285D01*
X91894342Y-24214285D02*
X91989580Y-24261904D01*
X91989580Y-24261904D02*
X92037200Y-24309523D01*
X92037200Y-24309523D02*
X92084819Y-24404761D01*
X92084819Y-24404761D02*
X92084819Y-24642856D01*
X92084819Y-24642856D02*
X92037200Y-24738094D01*
X92037200Y-24738094D02*
X91989580Y-24785713D01*
X92484819Y-91176666D02*
X92008628Y-91509999D01*
X92484819Y-91748094D02*
X91484819Y-91748094D01*
X91484819Y-91748094D02*
X91484819Y-91367142D01*
X91484819Y-91367142D02*
X91532438Y-91271904D01*
X91532438Y-91271904D02*
X91580057Y-91224285D01*
X91580057Y-91224285D02*
X91675295Y-91176666D01*
X91675295Y-91176666D02*
X91818152Y-91176666D01*
X91818152Y-91176666D02*
X91913390Y-91224285D01*
X91913390Y-91224285D02*
X91961009Y-91271904D01*
X91961009Y-91271904D02*
X92008628Y-91367142D01*
X92008628Y-91367142D02*
X92008628Y-91748094D01*
X91913390Y-90605237D02*
X91865771Y-90700475D01*
X91865771Y-90700475D02*
X91818152Y-90748094D01*
X91818152Y-90748094D02*
X91722914Y-90795713D01*
X91722914Y-90795713D02*
X91675295Y-90795713D01*
X91675295Y-90795713D02*
X91580057Y-90748094D01*
X91580057Y-90748094D02*
X91532438Y-90700475D01*
X91532438Y-90700475D02*
X91484819Y-90605237D01*
X91484819Y-90605237D02*
X91484819Y-90414761D01*
X91484819Y-90414761D02*
X91532438Y-90319523D01*
X91532438Y-90319523D02*
X91580057Y-90271904D01*
X91580057Y-90271904D02*
X91675295Y-90224285D01*
X91675295Y-90224285D02*
X91722914Y-90224285D01*
X91722914Y-90224285D02*
X91818152Y-90271904D01*
X91818152Y-90271904D02*
X91865771Y-90319523D01*
X91865771Y-90319523D02*
X91913390Y-90414761D01*
X91913390Y-90414761D02*
X91913390Y-90605237D01*
X91913390Y-90605237D02*
X91961009Y-90700475D01*
X91961009Y-90700475D02*
X92008628Y-90748094D01*
X92008628Y-90748094D02*
X92103866Y-90795713D01*
X92103866Y-90795713D02*
X92294342Y-90795713D01*
X92294342Y-90795713D02*
X92389580Y-90748094D01*
X92389580Y-90748094D02*
X92437200Y-90700475D01*
X92437200Y-90700475D02*
X92484819Y-90605237D01*
X92484819Y-90605237D02*
X92484819Y-90414761D01*
X92484819Y-90414761D02*
X92437200Y-90319523D01*
X92437200Y-90319523D02*
X92389580Y-90271904D01*
X92389580Y-90271904D02*
X92294342Y-90224285D01*
X92294342Y-90224285D02*
X92103866Y-90224285D01*
X92103866Y-90224285D02*
X92008628Y-90271904D01*
X92008628Y-90271904D02*
X91961009Y-90319523D01*
X91961009Y-90319523D02*
X91913390Y-90414761D01*
X102074819Y-34333333D02*
X102789104Y-34333333D01*
X102789104Y-34333333D02*
X102931961Y-34380952D01*
X102931961Y-34380952D02*
X103027200Y-34476190D01*
X103027200Y-34476190D02*
X103074819Y-34619047D01*
X103074819Y-34619047D02*
X103074819Y-34714285D01*
X102170057Y-33904761D02*
X102122438Y-33857142D01*
X102122438Y-33857142D02*
X102074819Y-33761904D01*
X102074819Y-33761904D02*
X102074819Y-33523809D01*
X102074819Y-33523809D02*
X102122438Y-33428571D01*
X102122438Y-33428571D02*
X102170057Y-33380952D01*
X102170057Y-33380952D02*
X102265295Y-33333333D01*
X102265295Y-33333333D02*
X102360533Y-33333333D01*
X102360533Y-33333333D02*
X102503390Y-33380952D01*
X102503390Y-33380952D02*
X103074819Y-33952380D01*
X103074819Y-33952380D02*
X103074819Y-33333333D01*
X92384819Y-69176666D02*
X91908628Y-69509999D01*
X92384819Y-69748094D02*
X91384819Y-69748094D01*
X91384819Y-69748094D02*
X91384819Y-69367142D01*
X91384819Y-69367142D02*
X91432438Y-69271904D01*
X91432438Y-69271904D02*
X91480057Y-69224285D01*
X91480057Y-69224285D02*
X91575295Y-69176666D01*
X91575295Y-69176666D02*
X91718152Y-69176666D01*
X91718152Y-69176666D02*
X91813390Y-69224285D01*
X91813390Y-69224285D02*
X91861009Y-69271904D01*
X91861009Y-69271904D02*
X91908628Y-69367142D01*
X91908628Y-69367142D02*
X91908628Y-69748094D01*
X91384819Y-68843332D02*
X91384819Y-68176666D01*
X91384819Y-68176666D02*
X92384819Y-68605237D01*
X68984819Y-101016666D02*
X68508628Y-101349999D01*
X68984819Y-101588094D02*
X67984819Y-101588094D01*
X67984819Y-101588094D02*
X67984819Y-101207142D01*
X67984819Y-101207142D02*
X68032438Y-101111904D01*
X68032438Y-101111904D02*
X68080057Y-101064285D01*
X68080057Y-101064285D02*
X68175295Y-101016666D01*
X68175295Y-101016666D02*
X68318152Y-101016666D01*
X68318152Y-101016666D02*
X68413390Y-101064285D01*
X68413390Y-101064285D02*
X68461009Y-101111904D01*
X68461009Y-101111904D02*
X68508628Y-101207142D01*
X68508628Y-101207142D02*
X68508628Y-101588094D01*
X67984819Y-100683332D02*
X67984819Y-100064285D01*
X67984819Y-100064285D02*
X68365771Y-100397618D01*
X68365771Y-100397618D02*
X68365771Y-100254761D01*
X68365771Y-100254761D02*
X68413390Y-100159523D01*
X68413390Y-100159523D02*
X68461009Y-100111904D01*
X68461009Y-100111904D02*
X68556247Y-100064285D01*
X68556247Y-100064285D02*
X68794342Y-100064285D01*
X68794342Y-100064285D02*
X68889580Y-100111904D01*
X68889580Y-100111904D02*
X68937200Y-100159523D01*
X68937200Y-100159523D02*
X68984819Y-100254761D01*
X68984819Y-100254761D02*
X68984819Y-100540475D01*
X68984819Y-100540475D02*
X68937200Y-100635713D01*
X68937200Y-100635713D02*
X68889580Y-100683332D01*
X153083333Y-70034819D02*
X152750000Y-69558628D01*
X152511905Y-70034819D02*
X152511905Y-69034819D01*
X152511905Y-69034819D02*
X152892857Y-69034819D01*
X152892857Y-69034819D02*
X152988095Y-69082438D01*
X152988095Y-69082438D02*
X153035714Y-69130057D01*
X153035714Y-69130057D02*
X153083333Y-69225295D01*
X153083333Y-69225295D02*
X153083333Y-69368152D01*
X153083333Y-69368152D02*
X153035714Y-69463390D01*
X153035714Y-69463390D02*
X152988095Y-69511009D01*
X152988095Y-69511009D02*
X152892857Y-69558628D01*
X152892857Y-69558628D02*
X152511905Y-69558628D01*
X154035714Y-70034819D02*
X153464286Y-70034819D01*
X153750000Y-70034819D02*
X153750000Y-69034819D01*
X153750000Y-69034819D02*
X153654762Y-69177676D01*
X153654762Y-69177676D02*
X153559524Y-69272914D01*
X153559524Y-69272914D02*
X153464286Y-69320533D01*
X151190476Y-75507200D02*
X151333333Y-75554819D01*
X151333333Y-75554819D02*
X151571428Y-75554819D01*
X151571428Y-75554819D02*
X151666666Y-75507200D01*
X151666666Y-75507200D02*
X151714285Y-75459580D01*
X151714285Y-75459580D02*
X151761904Y-75364342D01*
X151761904Y-75364342D02*
X151761904Y-75269104D01*
X151761904Y-75269104D02*
X151714285Y-75173866D01*
X151714285Y-75173866D02*
X151666666Y-75126247D01*
X151666666Y-75126247D02*
X151571428Y-75078628D01*
X151571428Y-75078628D02*
X151380952Y-75031009D01*
X151380952Y-75031009D02*
X151285714Y-74983390D01*
X151285714Y-74983390D02*
X151238095Y-74935771D01*
X151238095Y-74935771D02*
X151190476Y-74840533D01*
X151190476Y-74840533D02*
X151190476Y-74745295D01*
X151190476Y-74745295D02*
X151238095Y-74650057D01*
X151238095Y-74650057D02*
X151285714Y-74602438D01*
X151285714Y-74602438D02*
X151380952Y-74554819D01*
X151380952Y-74554819D02*
X151619047Y-74554819D01*
X151619047Y-74554819D02*
X151761904Y-74602438D01*
X152095238Y-74554819D02*
X152333333Y-75554819D01*
X152333333Y-75554819D02*
X152523809Y-74840533D01*
X152523809Y-74840533D02*
X152714285Y-75554819D01*
X152714285Y-75554819D02*
X152952381Y-74554819D01*
X153857142Y-75554819D02*
X153285714Y-75554819D01*
X153571428Y-75554819D02*
X153571428Y-74554819D01*
X153571428Y-74554819D02*
X153476190Y-74697676D01*
X153476190Y-74697676D02*
X153380952Y-74792914D01*
X153380952Y-74792914D02*
X153285714Y-74840533D01*
X154190476Y-74554819D02*
X154809523Y-74554819D01*
X154809523Y-74554819D02*
X154476190Y-74935771D01*
X154476190Y-74935771D02*
X154619047Y-74935771D01*
X154619047Y-74935771D02*
X154714285Y-74983390D01*
X154714285Y-74983390D02*
X154761904Y-75031009D01*
X154761904Y-75031009D02*
X154809523Y-75126247D01*
X154809523Y-75126247D02*
X154809523Y-75364342D01*
X154809523Y-75364342D02*
X154761904Y-75459580D01*
X154761904Y-75459580D02*
X154714285Y-75507200D01*
X154714285Y-75507200D02*
X154619047Y-75554819D01*
X154619047Y-75554819D02*
X154333333Y-75554819D01*
X154333333Y-75554819D02*
X154238095Y-75507200D01*
X154238095Y-75507200D02*
X154190476Y-75459580D01*
X123581666Y-88724819D02*
X123581666Y-89439104D01*
X123581666Y-89439104D02*
X123534047Y-89581961D01*
X123534047Y-89581961D02*
X123438809Y-89677200D01*
X123438809Y-89677200D02*
X123295952Y-89724819D01*
X123295952Y-89724819D02*
X123200714Y-89724819D01*
X124486428Y-89058152D02*
X124486428Y-89724819D01*
X124248333Y-88677200D02*
X124010238Y-89391485D01*
X124010238Y-89391485D02*
X124629285Y-89391485D01*
X103281666Y-88724819D02*
X103281666Y-89439104D01*
X103281666Y-89439104D02*
X103234047Y-89581961D01*
X103234047Y-89581961D02*
X103138809Y-89677200D01*
X103138809Y-89677200D02*
X102995952Y-89724819D01*
X102995952Y-89724819D02*
X102900714Y-89724819D01*
X104234047Y-88724819D02*
X103757857Y-88724819D01*
X103757857Y-88724819D02*
X103710238Y-89201009D01*
X103710238Y-89201009D02*
X103757857Y-89153390D01*
X103757857Y-89153390D02*
X103853095Y-89105771D01*
X103853095Y-89105771D02*
X104091190Y-89105771D01*
X104091190Y-89105771D02*
X104186428Y-89153390D01*
X104186428Y-89153390D02*
X104234047Y-89201009D01*
X104234047Y-89201009D02*
X104281666Y-89296247D01*
X104281666Y-89296247D02*
X104281666Y-89534342D01*
X104281666Y-89534342D02*
X104234047Y-89629580D01*
X104234047Y-89629580D02*
X104186428Y-89677200D01*
X104186428Y-89677200D02*
X104091190Y-89724819D01*
X104091190Y-89724819D02*
X103853095Y-89724819D01*
X103853095Y-89724819D02*
X103757857Y-89677200D01*
X103757857Y-89677200D02*
X103710238Y-89629580D01*
X138344819Y-29598333D02*
X139059104Y-29598333D01*
X139059104Y-29598333D02*
X139201961Y-29645952D01*
X139201961Y-29645952D02*
X139297200Y-29741190D01*
X139297200Y-29741190D02*
X139344819Y-29884047D01*
X139344819Y-29884047D02*
X139344819Y-29979285D01*
X138344819Y-28693571D02*
X138344819Y-28884047D01*
X138344819Y-28884047D02*
X138392438Y-28979285D01*
X138392438Y-28979285D02*
X138440057Y-29026904D01*
X138440057Y-29026904D02*
X138582914Y-29122142D01*
X138582914Y-29122142D02*
X138773390Y-29169761D01*
X138773390Y-29169761D02*
X139154342Y-29169761D01*
X139154342Y-29169761D02*
X139249580Y-29122142D01*
X139249580Y-29122142D02*
X139297200Y-29074523D01*
X139297200Y-29074523D02*
X139344819Y-28979285D01*
X139344819Y-28979285D02*
X139344819Y-28788809D01*
X139344819Y-28788809D02*
X139297200Y-28693571D01*
X139297200Y-28693571D02*
X139249580Y-28645952D01*
X139249580Y-28645952D02*
X139154342Y-28598333D01*
X139154342Y-28598333D02*
X138916247Y-28598333D01*
X138916247Y-28598333D02*
X138821009Y-28645952D01*
X138821009Y-28645952D02*
X138773390Y-28693571D01*
X138773390Y-28693571D02*
X138725771Y-28788809D01*
X138725771Y-28788809D02*
X138725771Y-28979285D01*
X138725771Y-28979285D02*
X138773390Y-29074523D01*
X138773390Y-29074523D02*
X138821009Y-29122142D01*
X138821009Y-29122142D02*
X138916247Y-29169761D01*
X153014819Y-35683333D02*
X153729104Y-35683333D01*
X153729104Y-35683333D02*
X153871961Y-35730952D01*
X153871961Y-35730952D02*
X153967200Y-35826190D01*
X153967200Y-35826190D02*
X154014819Y-35969047D01*
X154014819Y-35969047D02*
X154014819Y-36064285D01*
X153014819Y-35302380D02*
X153014819Y-34683333D01*
X153014819Y-34683333D02*
X153395771Y-35016666D01*
X153395771Y-35016666D02*
X153395771Y-34873809D01*
X153395771Y-34873809D02*
X153443390Y-34778571D01*
X153443390Y-34778571D02*
X153491009Y-34730952D01*
X153491009Y-34730952D02*
X153586247Y-34683333D01*
X153586247Y-34683333D02*
X153824342Y-34683333D01*
X153824342Y-34683333D02*
X153919580Y-34730952D01*
X153919580Y-34730952D02*
X153967200Y-34778571D01*
X153967200Y-34778571D02*
X154014819Y-34873809D01*
X154014819Y-34873809D02*
X154014819Y-35159523D01*
X154014819Y-35159523D02*
X153967200Y-35254761D01*
X153967200Y-35254761D02*
X153919580Y-35302380D01*
%TO.C,J1*%
D20*
X158490000Y-44120000D02*
X163680000Y-44120000D01*
X163680000Y-46880000D02*
X163680000Y-44120000D01*
X158490000Y-46880000D02*
X158490000Y-44120000D01*
X158490000Y-46880000D02*
X163680000Y-46880000D01*
X157220000Y-46880000D02*
X155840000Y-46880000D01*
X155840000Y-46880000D02*
X155840000Y-45500000D01*
%TO.C,D16*%
X56740000Y-103500000D02*
X57390000Y-103500000D01*
X60790000Y-104620000D02*
X60790000Y-102380000D01*
X60910000Y-104620000D02*
X60910000Y-102380000D01*
X61030000Y-104620000D02*
X61030000Y-102380000D01*
X62280000Y-103500000D02*
X61630000Y-103500000D01*
X57390000Y-102380000D02*
X61630000Y-102380000D01*
X61630000Y-104620000D01*
X57390000Y-104620000D01*
X57390000Y-102380000D01*
%TO.C,SW12*%
X89745000Y-99415000D02*
X75775000Y-99415000D01*
X89745000Y-85445000D02*
X89745000Y-99415000D01*
X75775000Y-99415000D02*
X75775000Y-85445000D01*
X75775000Y-85445000D02*
X89745000Y-85445000D01*
%TO.C,SW7*%
X66445000Y-77565000D02*
X52475000Y-77565000D01*
X66445000Y-63595000D02*
X66445000Y-77565000D01*
X52475000Y-77565000D02*
X52475000Y-63595000D01*
X52475000Y-63595000D02*
X66445000Y-63595000D01*
%TO.C,SW8*%
X66485000Y-99485000D02*
X52515000Y-99485000D01*
X66485000Y-85515000D02*
X66485000Y-99485000D01*
X52515000Y-99485000D02*
X52515000Y-85515000D01*
X52515000Y-85515000D02*
X66485000Y-85515000D01*
%TO.C,SW6*%
X66445000Y-55485000D02*
X52475000Y-55485000D01*
X66445000Y-41515000D02*
X66445000Y-55485000D01*
X52475000Y-55485000D02*
X52475000Y-41515000D01*
X52475000Y-41515000D02*
X66445000Y-41515000D01*
%TO.C,D20*%
X35070000Y-102380000D02*
X39310000Y-102380000D01*
X39310000Y-104620000D01*
X35070000Y-104620000D01*
X35070000Y-102380000D01*
X39960000Y-103500000D02*
X39310000Y-103500000D01*
X38710000Y-104620000D02*
X38710000Y-102380000D01*
X38590000Y-104620000D02*
X38590000Y-102380000D01*
X38470000Y-104620000D02*
X38470000Y-102380000D01*
X34420000Y-103500000D02*
X35070000Y-103500000D01*
%TO.C,D12*%
X80670000Y-102380000D02*
X84910000Y-102380000D01*
X84910000Y-104620000D01*
X80670000Y-104620000D01*
X80670000Y-102380000D01*
X85560000Y-103500000D02*
X84910000Y-103500000D01*
X84310000Y-104620000D02*
X84310000Y-102380000D01*
X84190000Y-104620000D02*
X84190000Y-102380000D01*
X84070000Y-104620000D02*
X84070000Y-102380000D01*
X80020000Y-103500000D02*
X80670000Y-103500000D01*
%TO.C,D19*%
X57070000Y-36380000D02*
X61310000Y-36380000D01*
X61310000Y-38620000D01*
X57070000Y-38620000D01*
X57070000Y-36380000D01*
X61960000Y-37500000D02*
X61310000Y-37500000D01*
X60710000Y-38620000D02*
X60710000Y-36380000D01*
X60590000Y-38620000D02*
X60590000Y-36380000D01*
X60470000Y-38620000D02*
X60470000Y-36380000D01*
X56420000Y-37500000D02*
X57070000Y-37500000D01*
%TO.C,D22*%
X35070000Y-58380000D02*
X39310000Y-58380000D01*
X39310000Y-60620000D01*
X35070000Y-60620000D01*
X35070000Y-58380000D01*
X39960000Y-59500000D02*
X39310000Y-59500000D01*
X38710000Y-60620000D02*
X38710000Y-58380000D01*
X38590000Y-60620000D02*
X38590000Y-58380000D01*
X38470000Y-60620000D02*
X38470000Y-58380000D01*
X34420000Y-59500000D02*
X35070000Y-59500000D01*
%TO.C,SW4*%
X44405000Y-99485000D02*
X30435000Y-99485000D01*
X44405000Y-85515000D02*
X44405000Y-99485000D01*
X30435000Y-99485000D02*
X30435000Y-85515000D01*
X30435000Y-85515000D02*
X44405000Y-85515000D01*
%TO.C,SW5*%
X66405000Y-33485000D02*
X52435000Y-33485000D01*
X66405000Y-19515000D02*
X66405000Y-33485000D01*
X52435000Y-33485000D02*
X52435000Y-19515000D01*
X52435000Y-19515000D02*
X66405000Y-19515000D01*
%TO.C,D21*%
X35220000Y-80330000D02*
X39460000Y-80330000D01*
X39460000Y-82570000D01*
X35220000Y-82570000D01*
X35220000Y-80330000D01*
X40110000Y-81450000D02*
X39460000Y-81450000D01*
X38860000Y-82570000D02*
X38860000Y-80330000D01*
X38740000Y-82570000D02*
X38740000Y-80330000D01*
X38620000Y-82570000D02*
X38620000Y-80330000D01*
X34570000Y-81450000D02*
X35220000Y-81450000D01*
%TO.C,D14*%
X80630000Y-58360000D02*
X84870000Y-58360000D01*
X84870000Y-60600000D01*
X80630000Y-60600000D01*
X80630000Y-58360000D01*
X85520000Y-59480000D02*
X84870000Y-59480000D01*
X84270000Y-60600000D02*
X84270000Y-58360000D01*
X84150000Y-60600000D02*
X84150000Y-58360000D01*
X84030000Y-60600000D02*
X84030000Y-58360000D01*
X79980000Y-59480000D02*
X80630000Y-59480000D01*
%TO.C,D17*%
X57570000Y-80380000D02*
X61810000Y-80380000D01*
X61810000Y-82620000D01*
X57570000Y-82620000D01*
X57570000Y-80380000D01*
X62460000Y-81500000D02*
X61810000Y-81500000D01*
X61210000Y-82620000D02*
X61210000Y-80380000D01*
X61090000Y-82620000D02*
X61090000Y-80380000D01*
X60970000Y-82620000D02*
X60970000Y-80380000D01*
X56920000Y-81500000D02*
X57570000Y-81500000D01*
%TO.C,SW1*%
X30325000Y-19555000D02*
X44295000Y-19555000D01*
X30325000Y-33525000D02*
X30325000Y-19555000D01*
X44295000Y-19555000D02*
X44295000Y-33525000D01*
X44295000Y-33525000D02*
X30325000Y-33525000D01*
%TO.C,D18*%
X57570000Y-58380000D02*
X61810000Y-58380000D01*
X61810000Y-60620000D01*
X57570000Y-60620000D01*
X57570000Y-58380000D01*
X62460000Y-59500000D02*
X61810000Y-59500000D01*
X61210000Y-60620000D02*
X61210000Y-58380000D01*
X61090000Y-60620000D02*
X61090000Y-58380000D01*
X60970000Y-60620000D02*
X60970000Y-58380000D01*
X56920000Y-59500000D02*
X57570000Y-59500000D01*
%TO.C,SW3*%
X44405000Y-77485000D02*
X30435000Y-77485000D01*
X44405000Y-63515000D02*
X44405000Y-77485000D01*
X30435000Y-77485000D02*
X30435000Y-63515000D01*
X30435000Y-63515000D02*
X44405000Y-63515000D01*
%TO.C,D23*%
X35070000Y-36380000D02*
X39310000Y-36380000D01*
X39310000Y-38620000D01*
X35070000Y-38620000D01*
X35070000Y-36380000D01*
X39960000Y-37500000D02*
X39310000Y-37500000D01*
X38710000Y-38620000D02*
X38710000Y-36380000D01*
X38590000Y-38620000D02*
X38590000Y-36380000D01*
X38470000Y-38620000D02*
X38470000Y-36380000D01*
X34420000Y-37500000D02*
X35070000Y-37500000D01*
%TO.C,D15*%
X80570000Y-36380000D02*
X84810000Y-36380000D01*
X84810000Y-38620000D01*
X80570000Y-38620000D01*
X80570000Y-36380000D01*
X85460000Y-37500000D02*
X84810000Y-37500000D01*
X84210000Y-38620000D02*
X84210000Y-36380000D01*
X84090000Y-38620000D02*
X84090000Y-36380000D01*
X83970000Y-38620000D02*
X83970000Y-36380000D01*
X79920000Y-37500000D02*
X80570000Y-37500000D01*
%TO.C,SW2*%
X44295000Y-55485000D02*
X30325000Y-55485000D01*
X44295000Y-41515000D02*
X44295000Y-55485000D01*
X30325000Y-55485000D02*
X30325000Y-41515000D01*
X30325000Y-41515000D02*
X44295000Y-41515000D01*
%TO.C,D13*%
X80670000Y-80280000D02*
X84910000Y-80280000D01*
X84910000Y-82520000D01*
X80670000Y-82520000D01*
X80670000Y-80280000D01*
X85560000Y-81400000D02*
X84910000Y-81400000D01*
X84310000Y-82520000D02*
X84310000Y-80280000D01*
X84190000Y-82520000D02*
X84190000Y-80280000D01*
X84070000Y-82520000D02*
X84070000Y-80280000D01*
X80020000Y-81400000D02*
X80670000Y-81400000D01*
%TO.C,SW9*%
X89485000Y-33485000D02*
X75515000Y-33485000D01*
X89485000Y-19515000D02*
X89485000Y-33485000D01*
X75515000Y-33485000D02*
X75515000Y-19515000D01*
X75515000Y-19515000D02*
X89485000Y-19515000D01*
%TO.C,SW10*%
X89595000Y-55475000D02*
X75625000Y-55475000D01*
X89595000Y-41505000D02*
X89595000Y-55475000D01*
X75625000Y-55475000D02*
X75625000Y-41505000D01*
X75625000Y-41505000D02*
X89595000Y-41505000D01*
%TO.C,SW11*%
X89695000Y-77475000D02*
X75725000Y-77475000D01*
X89695000Y-63505000D02*
X89695000Y-77475000D01*
X75725000Y-77475000D02*
X75725000Y-63505000D01*
X75725000Y-63505000D02*
X89695000Y-63505000D01*
%TO.C,R4*%
X95820000Y-104120000D02*
X95490000Y-104120000D01*
X95820000Y-97580000D02*
X95820000Y-104120000D01*
X95490000Y-97580000D02*
X95820000Y-97580000D01*
X93410000Y-97580000D02*
X93080000Y-97580000D01*
X93080000Y-104120000D02*
X93410000Y-104120000D01*
X93080000Y-97580000D02*
X93080000Y-104120000D01*
%TO.C,R2*%
X47080000Y-97130000D02*
X47410000Y-97130000D01*
X47080000Y-103670000D02*
X47080000Y-97130000D01*
X47410000Y-103670000D02*
X47080000Y-103670000D01*
X49490000Y-103670000D02*
X49820000Y-103670000D01*
X49820000Y-97130000D02*
X49490000Y-97130000D01*
X49820000Y-103670000D02*
X49820000Y-97130000D01*
%TO.C,R6*%
X92580000Y-43430000D02*
X92910000Y-43430000D01*
X92580000Y-49970000D02*
X92580000Y-43430000D01*
X92910000Y-49970000D02*
X92580000Y-49970000D01*
X94990000Y-49970000D02*
X95320000Y-49970000D01*
X95320000Y-43430000D02*
X94990000Y-43430000D01*
X95320000Y-49970000D02*
X95320000Y-43430000D01*
%TO.C,R5*%
X92630000Y-21730000D02*
X92960000Y-21730000D01*
X92630000Y-28270000D02*
X92630000Y-21730000D01*
X92960000Y-28270000D02*
X92630000Y-28270000D01*
X95040000Y-28270000D02*
X95370000Y-28270000D01*
X95370000Y-21730000D02*
X95040000Y-21730000D01*
X95370000Y-28270000D02*
X95370000Y-21730000D01*
%TO.C,R8*%
X93030000Y-87740000D02*
X93360000Y-87740000D01*
X93030000Y-94280000D02*
X93030000Y-87740000D01*
X93360000Y-94280000D02*
X93030000Y-94280000D01*
X95440000Y-94280000D02*
X95770000Y-94280000D01*
X95770000Y-87740000D02*
X95440000Y-87740000D01*
X95770000Y-94280000D02*
X95770000Y-87740000D01*
%TO.C,J2*%
X103620000Y-35380000D02*
X103620000Y-34000000D01*
X105000000Y-35380000D02*
X103620000Y-35380000D01*
X106270000Y-35380000D02*
X126700000Y-35380000D01*
X106270000Y-35380000D02*
X106270000Y-32620000D01*
X126700000Y-35380000D02*
X126700000Y-32620000D01*
X106270000Y-32620000D02*
X126700000Y-32620000D01*
%TO.C,R7*%
X92930000Y-65740000D02*
X93260000Y-65740000D01*
X92930000Y-72280000D02*
X92930000Y-65740000D01*
X93260000Y-72280000D02*
X92930000Y-72280000D01*
X95340000Y-72280000D02*
X95670000Y-72280000D01*
X95670000Y-65740000D02*
X95340000Y-65740000D01*
X95670000Y-72280000D02*
X95670000Y-65740000D01*
%TO.C,R3*%
X69530000Y-97580000D02*
X69860000Y-97580000D01*
X69530000Y-104120000D02*
X69530000Y-97580000D01*
X69860000Y-104120000D02*
X69530000Y-104120000D01*
X71940000Y-104120000D02*
X72270000Y-104120000D01*
X72270000Y-97580000D02*
X71940000Y-97580000D01*
X72270000Y-104120000D02*
X72270000Y-97580000D01*
%TO.C,R1*%
X156520000Y-70580000D02*
X156520000Y-70910000D01*
X149980000Y-70580000D02*
X156520000Y-70580000D01*
X149980000Y-70910000D02*
X149980000Y-70580000D01*
X149980000Y-72990000D02*
X149980000Y-73320000D01*
X156520000Y-73320000D02*
X156520000Y-72990000D01*
X149980000Y-73320000D02*
X156520000Y-73320000D01*
%TO.C,SW13*%
X149500000Y-78600000D02*
X149500000Y-80100000D01*
X150750000Y-82600000D02*
X155250000Y-82600000D01*
X155250000Y-76100000D02*
X150750000Y-76100000D01*
X156500000Y-80100000D02*
X156500000Y-78600000D01*
%TO.C,J4*%
X129570000Y-88270000D02*
X128300000Y-88270000D01*
X129570000Y-87000000D02*
X129570000Y-88270000D01*
X127222642Y-84890000D02*
X126910000Y-84890000D01*
X127222642Y-84030000D02*
X126910000Y-84030000D01*
X127222642Y-82350000D02*
X126910000Y-82350000D01*
X127222642Y-81490000D02*
X126910000Y-81490000D01*
X127222642Y-79810000D02*
X126910000Y-79810000D01*
X127222642Y-78950000D02*
X126910000Y-78950000D01*
X127222642Y-77270000D02*
X126910000Y-77270000D01*
X127222642Y-76410000D02*
X126910000Y-76410000D01*
X127222642Y-74730000D02*
X126910000Y-74730000D01*
X127222642Y-73870000D02*
X126910000Y-73870000D01*
X127222642Y-72190000D02*
X126910000Y-72190000D01*
X127222642Y-71330000D02*
X126910000Y-71330000D01*
X127222642Y-69650000D02*
X126910000Y-69650000D01*
X127222642Y-68790000D02*
X126910000Y-68790000D01*
X127222642Y-67110000D02*
X126910000Y-67110000D01*
X127222642Y-66250000D02*
X126910000Y-66250000D01*
X127222642Y-64570000D02*
X126910000Y-64570000D01*
X127222642Y-63710000D02*
X126910000Y-63710000D01*
X127222642Y-62030000D02*
X126910000Y-62030000D01*
X127222642Y-61170000D02*
X126910000Y-61170000D01*
X127222642Y-59490000D02*
X126910000Y-59490000D01*
X127222642Y-58630000D02*
X126910000Y-58630000D01*
X127222642Y-56950000D02*
X126910000Y-56950000D01*
X127222642Y-56090000D02*
X126910000Y-56090000D01*
X127222642Y-54410000D02*
X126910000Y-54410000D01*
X127222642Y-53550000D02*
X126910000Y-53550000D01*
X127222642Y-51870000D02*
X126910000Y-51870000D01*
X127222642Y-51010000D02*
X126910000Y-51010000D01*
X127222642Y-49330000D02*
X126910000Y-49330000D01*
X127222642Y-48470000D02*
X126910000Y-48470000D01*
X127222642Y-46790000D02*
X126910000Y-46790000D01*
X127222642Y-45930000D02*
X126910000Y-45930000D01*
X127222642Y-44250000D02*
X126910000Y-44250000D01*
X127222642Y-43390000D02*
X126910000Y-43390000D01*
X127222642Y-41710000D02*
X126910000Y-41710000D01*
X127222642Y-40850000D02*
X126910000Y-40850000D01*
X127140000Y-87430000D02*
X126910000Y-87430000D01*
X127140000Y-86570000D02*
X126910000Y-86570000D01*
X126910000Y-85730000D02*
X124150000Y-85730000D01*
X126910000Y-83190000D02*
X124150000Y-83190000D01*
X126910000Y-80650000D02*
X124150000Y-80650000D01*
X126910000Y-78110000D02*
X124150000Y-78110000D01*
X126910000Y-75570000D02*
X124150000Y-75570000D01*
X126910000Y-73030000D02*
X124150000Y-73030000D01*
X126910000Y-70490000D02*
X124150000Y-70490000D01*
X126910000Y-67950000D02*
X124150000Y-67950000D01*
X126910000Y-65410000D02*
X124150000Y-65410000D01*
X126910000Y-62870000D02*
X124150000Y-62870000D01*
X126910000Y-60330000D02*
X124150000Y-60330000D01*
X126910000Y-57790000D02*
X124150000Y-57790000D01*
X126910000Y-55250000D02*
X124150000Y-55250000D01*
X126910000Y-52710000D02*
X124150000Y-52710000D01*
X126910000Y-50170000D02*
X124150000Y-50170000D01*
X126910000Y-47630000D02*
X124150000Y-47630000D01*
X126910000Y-45090000D02*
X124150000Y-45090000D01*
X126910000Y-42550000D02*
X124150000Y-42550000D01*
X124150000Y-84890000D02*
X118150000Y-84890000D01*
X124150000Y-82350000D02*
X118150000Y-82350000D01*
X124150000Y-79810000D02*
X118150000Y-79810000D01*
X124150000Y-77270000D02*
X118150000Y-77270000D01*
X124150000Y-74730000D02*
X118150000Y-74730000D01*
X124150000Y-72190000D02*
X118150000Y-72190000D01*
X124150000Y-69650000D02*
X118150000Y-69650000D01*
X124150000Y-67110000D02*
X118150000Y-67110000D01*
X124150000Y-64570000D02*
X118150000Y-64570000D01*
X124150000Y-62030000D02*
X118150000Y-62030000D01*
X124150000Y-59490000D02*
X118150000Y-59490000D01*
X124150000Y-56950000D02*
X118150000Y-56950000D01*
X124150000Y-54410000D02*
X118150000Y-54410000D01*
X124150000Y-51870000D02*
X118150000Y-51870000D01*
X124150000Y-49330000D02*
X118150000Y-49330000D01*
X124150000Y-46790000D02*
X118150000Y-46790000D01*
X124150000Y-44250000D02*
X118150000Y-44250000D01*
X124150000Y-41710000D02*
X118150000Y-41710000D01*
X118150000Y-84890000D02*
X118150000Y-84030000D01*
X118150000Y-84030000D02*
X124150000Y-84030000D01*
X118150000Y-82350000D02*
X118150000Y-81490000D01*
X118150000Y-81490000D02*
X124150000Y-81490000D01*
X118150000Y-79810000D02*
X118150000Y-78950000D01*
X118150000Y-78950000D02*
X124150000Y-78950000D01*
X118150000Y-77270000D02*
X118150000Y-76410000D01*
X118150000Y-76410000D02*
X124150000Y-76410000D01*
X118150000Y-74730000D02*
X118150000Y-73870000D01*
X118150000Y-73870000D02*
X124150000Y-73870000D01*
X118150000Y-72190000D02*
X118150000Y-71330000D01*
X118150000Y-71330000D02*
X124150000Y-71330000D01*
X118150000Y-69650000D02*
X118150000Y-68790000D01*
X118150000Y-68790000D02*
X124150000Y-68790000D01*
X118150000Y-67110000D02*
X118150000Y-66250000D01*
X118150000Y-66250000D02*
X124150000Y-66250000D01*
X118150000Y-64570000D02*
X118150000Y-63710000D01*
X118150000Y-63710000D02*
X124150000Y-63710000D01*
X118150000Y-62030000D02*
X118150000Y-61170000D01*
X118150000Y-61170000D02*
X124150000Y-61170000D01*
X118150000Y-59490000D02*
X118150000Y-58630000D01*
X118150000Y-58630000D02*
X124150000Y-58630000D01*
X118150000Y-56950000D02*
X118150000Y-56090000D01*
X118150000Y-56090000D02*
X124150000Y-56090000D01*
X118150000Y-54410000D02*
X118150000Y-53550000D01*
X118150000Y-53550000D02*
X124150000Y-53550000D01*
X118150000Y-51870000D02*
X118150000Y-51010000D01*
X118150000Y-51010000D02*
X124150000Y-51010000D01*
X118150000Y-49330000D02*
X118150000Y-48470000D01*
X118150000Y-48470000D02*
X124150000Y-48470000D01*
X118150000Y-46790000D02*
X118150000Y-45930000D01*
X118150000Y-45930000D02*
X124150000Y-45930000D01*
X118150000Y-44250000D02*
X118150000Y-43390000D01*
X118150000Y-43390000D02*
X124150000Y-43390000D01*
X118150000Y-41710000D02*
X118150000Y-40850000D01*
X118150000Y-40850000D02*
X124150000Y-40850000D01*
X124150000Y-39900000D02*
X126910000Y-39900000D01*
X126910000Y-88380000D01*
X124150000Y-88380000D01*
X124150000Y-39900000D01*
X118150000Y-86570000D02*
X124150000Y-86570000D01*
X124150000Y-87430000D01*
X118150000Y-87430000D01*
X118150000Y-86570000D01*
G36*
X118150000Y-86570000D02*
G01*
X124150000Y-86570000D01*
X124150000Y-87430000D01*
X118150000Y-87430000D01*
X118150000Y-86570000D01*
G37*
%TO.C,J5*%
X97850000Y-40850000D02*
X103850000Y-40850000D01*
X97850000Y-41710000D02*
X97850000Y-40850000D01*
X97850000Y-43390000D02*
X103850000Y-43390000D01*
X97850000Y-44250000D02*
X97850000Y-43390000D01*
X97850000Y-45930000D02*
X103850000Y-45930000D01*
X97850000Y-46790000D02*
X97850000Y-45930000D01*
X97850000Y-48470000D02*
X103850000Y-48470000D01*
X97850000Y-49330000D02*
X97850000Y-48470000D01*
X97850000Y-51010000D02*
X103850000Y-51010000D01*
X97850000Y-51870000D02*
X97850000Y-51010000D01*
X97850000Y-53550000D02*
X103850000Y-53550000D01*
X97850000Y-54410000D02*
X97850000Y-53550000D01*
X97850000Y-56090000D02*
X103850000Y-56090000D01*
X97850000Y-56950000D02*
X97850000Y-56090000D01*
X97850000Y-58630000D02*
X103850000Y-58630000D01*
X97850000Y-59490000D02*
X97850000Y-58630000D01*
X97850000Y-61170000D02*
X103850000Y-61170000D01*
X97850000Y-62030000D02*
X97850000Y-61170000D01*
X97850000Y-63710000D02*
X103850000Y-63710000D01*
X97850000Y-64570000D02*
X97850000Y-63710000D01*
X97850000Y-66250000D02*
X103850000Y-66250000D01*
X97850000Y-67110000D02*
X97850000Y-66250000D01*
X97850000Y-68790000D02*
X103850000Y-68790000D01*
X97850000Y-69650000D02*
X97850000Y-68790000D01*
X97850000Y-71330000D02*
X103850000Y-71330000D01*
X97850000Y-72190000D02*
X97850000Y-71330000D01*
X97850000Y-73870000D02*
X103850000Y-73870000D01*
X97850000Y-74730000D02*
X97850000Y-73870000D01*
X97850000Y-76410000D02*
X103850000Y-76410000D01*
X97850000Y-77270000D02*
X97850000Y-76410000D01*
X97850000Y-78950000D02*
X103850000Y-78950000D01*
X97850000Y-79810000D02*
X97850000Y-78950000D01*
X97850000Y-81490000D02*
X103850000Y-81490000D01*
X97850000Y-82350000D02*
X97850000Y-81490000D01*
X97850000Y-84030000D02*
X103850000Y-84030000D01*
X97850000Y-84890000D02*
X97850000Y-84030000D01*
X103850000Y-41710000D02*
X97850000Y-41710000D01*
X103850000Y-44250000D02*
X97850000Y-44250000D01*
X103850000Y-46790000D02*
X97850000Y-46790000D01*
X103850000Y-49330000D02*
X97850000Y-49330000D01*
X103850000Y-51870000D02*
X97850000Y-51870000D01*
X103850000Y-54410000D02*
X97850000Y-54410000D01*
X103850000Y-56950000D02*
X97850000Y-56950000D01*
X103850000Y-59490000D02*
X97850000Y-59490000D01*
X103850000Y-62030000D02*
X97850000Y-62030000D01*
X103850000Y-64570000D02*
X97850000Y-64570000D01*
X103850000Y-67110000D02*
X97850000Y-67110000D01*
X103850000Y-69650000D02*
X97850000Y-69650000D01*
X103850000Y-72190000D02*
X97850000Y-72190000D01*
X103850000Y-74730000D02*
X97850000Y-74730000D01*
X103850000Y-77270000D02*
X97850000Y-77270000D01*
X103850000Y-79810000D02*
X97850000Y-79810000D01*
X103850000Y-82350000D02*
X97850000Y-82350000D01*
X103850000Y-84890000D02*
X97850000Y-84890000D01*
X106610000Y-42550000D02*
X103850000Y-42550000D01*
X106610000Y-45090000D02*
X103850000Y-45090000D01*
X106610000Y-47630000D02*
X103850000Y-47630000D01*
X106610000Y-50170000D02*
X103850000Y-50170000D01*
X106610000Y-52710000D02*
X103850000Y-52710000D01*
X106610000Y-55250000D02*
X103850000Y-55250000D01*
X106610000Y-57790000D02*
X103850000Y-57790000D01*
X106610000Y-60330000D02*
X103850000Y-60330000D01*
X106610000Y-62870000D02*
X103850000Y-62870000D01*
X106610000Y-65410000D02*
X103850000Y-65410000D01*
X106610000Y-67950000D02*
X103850000Y-67950000D01*
X106610000Y-70490000D02*
X103850000Y-70490000D01*
X106610000Y-73030000D02*
X103850000Y-73030000D01*
X106610000Y-75570000D02*
X103850000Y-75570000D01*
X106610000Y-78110000D02*
X103850000Y-78110000D01*
X106610000Y-80650000D02*
X103850000Y-80650000D01*
X106610000Y-83190000D02*
X103850000Y-83190000D01*
X106610000Y-85730000D02*
X103850000Y-85730000D01*
X106840000Y-86570000D02*
X106610000Y-86570000D01*
X106840000Y-87430000D02*
X106610000Y-87430000D01*
X106922642Y-40850000D02*
X106610000Y-40850000D01*
X106922642Y-41710000D02*
X106610000Y-41710000D01*
X106922642Y-43390000D02*
X106610000Y-43390000D01*
X106922642Y-44250000D02*
X106610000Y-44250000D01*
X106922642Y-45930000D02*
X106610000Y-45930000D01*
X106922642Y-46790000D02*
X106610000Y-46790000D01*
X106922642Y-48470000D02*
X106610000Y-48470000D01*
X106922642Y-49330000D02*
X106610000Y-49330000D01*
X106922642Y-51010000D02*
X106610000Y-51010000D01*
X106922642Y-51870000D02*
X106610000Y-51870000D01*
X106922642Y-53550000D02*
X106610000Y-53550000D01*
X106922642Y-54410000D02*
X106610000Y-54410000D01*
X106922642Y-56090000D02*
X106610000Y-56090000D01*
X106922642Y-56950000D02*
X106610000Y-56950000D01*
X106922642Y-58630000D02*
X106610000Y-58630000D01*
X106922642Y-59490000D02*
X106610000Y-59490000D01*
X106922642Y-61170000D02*
X106610000Y-61170000D01*
X106922642Y-62030000D02*
X106610000Y-62030000D01*
X106922642Y-63710000D02*
X106610000Y-63710000D01*
X106922642Y-64570000D02*
X106610000Y-64570000D01*
X106922642Y-66250000D02*
X106610000Y-66250000D01*
X106922642Y-67110000D02*
X106610000Y-67110000D01*
X106922642Y-68790000D02*
X106610000Y-68790000D01*
X106922642Y-69650000D02*
X106610000Y-69650000D01*
X106922642Y-71330000D02*
X106610000Y-71330000D01*
X106922642Y-72190000D02*
X106610000Y-72190000D01*
X106922642Y-73870000D02*
X106610000Y-73870000D01*
X106922642Y-74730000D02*
X106610000Y-74730000D01*
X106922642Y-76410000D02*
X106610000Y-76410000D01*
X106922642Y-77270000D02*
X106610000Y-77270000D01*
X106922642Y-78950000D02*
X106610000Y-78950000D01*
X106922642Y-79810000D02*
X106610000Y-79810000D01*
X106922642Y-81490000D02*
X106610000Y-81490000D01*
X106922642Y-82350000D02*
X106610000Y-82350000D01*
X106922642Y-84030000D02*
X106610000Y-84030000D01*
X106922642Y-84890000D02*
X106610000Y-84890000D01*
X109270000Y-87000000D02*
X109270000Y-88270000D01*
X109270000Y-88270000D02*
X108000000Y-88270000D01*
X97850000Y-86570000D02*
X103850000Y-86570000D01*
X103850000Y-87430000D01*
X97850000Y-87430000D01*
X97850000Y-86570000D01*
G36*
X97850000Y-86570000D02*
G01*
X103850000Y-86570000D01*
X103850000Y-87430000D01*
X97850000Y-87430000D01*
X97850000Y-86570000D01*
G37*
X103850000Y-39900000D02*
X106610000Y-39900000D01*
X106610000Y-88380000D01*
X103850000Y-88380000D01*
X103850000Y-39900000D01*
%TO.C,J6*%
X139890000Y-34920000D02*
X139890000Y-33650000D01*
X141160000Y-34920000D02*
X139890000Y-34920000D01*
X143270000Y-32572642D02*
X143270000Y-32260000D01*
X144130000Y-32572642D02*
X144130000Y-32260000D01*
X140730000Y-32490000D02*
X140730000Y-32260000D01*
X141590000Y-32490000D02*
X141590000Y-32260000D01*
X142430000Y-32260000D02*
X142430000Y-29500000D01*
X143270000Y-29500000D02*
X143270000Y-23500000D01*
X143270000Y-23500000D02*
X144130000Y-23500000D01*
X144130000Y-23500000D02*
X144130000Y-29500000D01*
X139780000Y-29500000D02*
X145080000Y-29500000D01*
X145080000Y-32260000D01*
X139780000Y-32260000D01*
X139780000Y-29500000D01*
X140730000Y-23500000D02*
X141590000Y-23500000D01*
X141590000Y-29500000D01*
X140730000Y-29500000D01*
X140730000Y-23500000D01*
G36*
X140730000Y-23500000D02*
G01*
X141590000Y-23500000D01*
X141590000Y-29500000D01*
X140730000Y-29500000D01*
X140730000Y-23500000D01*
G37*
%TO.C,J3*%
X154560000Y-36730000D02*
X154560000Y-35350000D01*
X155940000Y-36730000D02*
X154560000Y-36730000D01*
X157210000Y-36730000D02*
X164940000Y-36730000D01*
X157210000Y-36730000D02*
X157210000Y-33970000D01*
X164940000Y-36730000D02*
X164940000Y-33970000D01*
X157210000Y-33970000D02*
X164940000Y-33970000D01*
%TD*%
M02*
